<?xml version="1.0" encoding="UTF-8"?>
<svg width="53px" height="22px" viewBox="0 0 53 22" version="1.1" xmlns="http://www.w3.org/2000/svg" xmlns:xlink="http://www.w3.org/1999/xlink">
    <!-- Generator: Sketch 41.2 (35397) - http://www.bohemiancoding.com/sketch -->
    <title>arrow</title>
    <desc>Created with Sketch.</desc>
    <defs></defs>
    <g id="Page-1" stroke="none" stroke-width="1" fill="none" fill-rule="evenodd">
        <g id="arrow" fill="#E4E8E7">
            <path d="M13.828792,38.1730274 C14.0344097,38.121623 13.9830053,37.5561743 13.9830053,37.4533655 C13.3147478,30.2053423 14.5484539,22.9059146 17.6327191,16.2747444 C20.4085578,10.3118316 24.7265291,5.06858078 29.96978,1.11044043 C32.2315745,-0.585905439 34.6475822,-2.07663362 37.1663988,-3.25893529 C37.1149944,-3.20753087 37.06359,-3.10472203 37.0121856,-3.05331761 C36.086906,-1.81961152 35.2130308,-0.534501019 34.2363469,0.647800646 C33.9279203,1.05903601 33.9793248,1.67588905 34.0307292,2.13852883 C34.0307292,2.24133767 34.2877513,3.26942608 34.493369,2.96099955 C35.8812883,1.11044043 37.2692077,-0.79152312 38.6057226,-2.69348667 C39.0169579,-3.25893529 39.3767889,-3.82438391 39.6852154,-4.44123695 C39.7880242,-4.54404579 39.8394287,-4.74966347 39.8908331,-4.95528116 C39.9422375,-5.10949442 39.9936419,-5.3151121 40.0450463,-5.52072978 C40.1992596,-6.39460492 40.3020684,-7.67971543 39.27398,-7.98814195 C38.3487005,-8.24516405 37.1663988,-7.93673753 36.2925237,-7.83392869 C35.1616264,-7.67971543 33.9793248,-7.47409774 32.8484275,-7.21707564 C31.7175303,-7.01145796 30.586633,-6.70303144 29.4557358,-6.44600934 C28.4276474,-6.18898724 27.2967501,-5.88056072 26.3200662,-5.36651652 C26.0116396,-5.21230326 26.0630441,-3.92719275 26.422875,-3.82438391 C26.7827059,-3.72157507 27.0911325,-3.51595739 27.399559,-3.36174413 C27.5537722,-3.25893529 27.5537722,-3.77297949 27.5023678,-4.03000159 C28.2734341,-4.18421485 28.993096,-4.38983253 29.7641623,-4.59545021 C30.946464,-4.85247231 32.1287656,-5.05809 33.3110673,-5.26370768 C34.4419645,-5.41792094 35.5728618,-5.5721342 36.7551635,-5.67494304 C36.9607811,-5.67494304 37.2178032,-5.72634746 37.5262298,-5.77775188 C32.0259568,-3.20753087 27.0911325,0.544991805 23.1843965,5.22279404 C18.4037854,10.8772803 15.2681158,17.7654726 13.9830053,25.0134958 C13.2633434,29.1772539 13.1091302,33.4952251 13.6745788,37.7103876 C13.5717699,37.9160053 13.6231744,38.2244318 13.828792,38.1730274 Z" id="Shape" transform="translate(26.736758, 15.045371) rotate(60.000000) translate(-26.736758, -15.045371) "></path>
        </g>
    </g>
</svg>