<svg width="160" height="31" viewBox="0 0 160 31" version="1.1" xmlns="http://www.w3.org/2000/svg" xmlns:xlink="http://www.w3.org/1999/xlink">
<title>envato</title>
<desc>Created using Figma</desc>
<g id="Canvas" transform="translate(-1104 654)">
<g id="envato">
<g id="Vector">
<use xlink:href="#path0_fill" transform="translate(1104 -650.896)" fill="#81B441"/>
</g>
<g id="Vector">
<use xlink:href="#path1_fill" transform="translate(1133.24 -653.9)"/>
</g>
</g>
</g>
<defs>
<path id="path0_fill" d="M 20.444 0.196418C 19.644 -0.203582 17.3439 -0.00350857 14.5439 0.896491C 9.74395 4.19649 5.644 9.09649 5.344 16.8965C 5.244 17.0965 4.84402 16.8964 4.74402 16.7964C 3.44402 14.2964 2.94395 11.6964 4.04395 7.79639C 4.24395 7.49639 3.54397 6.99642 3.44397 7.19642C 3.24397 7.39642 2.24395 8.49642 1.54395 9.69642C -1.75605 15.3964 0.443923 22.6965 6.14392 25.8965C 11.9439 29.0965 19.144 26.9964 22.344 21.2964C 26.044 14.5964 22.544 1.39642 20.444 0.196418Z"/>
<path id="path1_fill" d="M 11.8 6.29995C 4.99998 6.29995 4.88281e-05 11.4 4.88281e-05 18.4C 4.88281e-05 25.4 4.90005 30.4 12 30.4C 15.6 30.4 18.4 29.3 20.6 27C 21.3 26.3 21.3 25.6 21.3 25.3C 21.3 24.2 20.5 23.3 19.3 23.3C 18.7 23.3 18.2 23.5 17.7 24C 16.4 25.2 14.7 26.4 12 26.4C 8.10005 26.4 4.99998 23.5 4.79998 19.8L 20.2 19.8C 21.9 19.8 22.7 19 22.7 17.4C 22.7 16.9 22.7 16.6 22.6 15.9C 21.7 9.90005 17.7 6.29995 11.8 6.29995ZM 11.8 10.1C 15.5 10.1 17.9 12.5 18 16.3L 4.79998 16.3C 5.09998 12.7 8.09998 10.1 11.8 10.1ZM 37.4 6.29995C 34.3 6.29995 31.2 8.1 30 10.6L 30 9.1C 30 6.7 28.2 6.6 27.8 6.6C 26.7 6.6 25.6 7.3 25.6 9.1L 25.6 27.6C 25.6 30.1 27.6 30.2 27.9 30.2C 28.3 30.2 30.2 30.1 30.2 27.6L 30.2 17.7C 30.2 13.4 32.6 10.4 36.1 10.4C 39.5 10.4 41.1 12.6 41.1 17.2L 41.1 27.6C 41.1 30.1 43.1 30.2 43.4 30.2C 43.7 30.2 45.7 30.1 45.7 27.6L 45.7 15.7C 45.9 11.1 43.7 6.29995 37.4 6.29995ZM 67.1 6.6C 66 6.6 65.2 7.20002 64.8 8.50002L 58.4 24.6L 52 8.50002C 51.5 7.20002 50.7 6.6 49.6 6.6C 48.3 6.6 47.3 7.59995 47.3 8.79995C 47.3 9.09995 47.3 9.5 47.6 10.1L 55 27.5C 55.9 29.6 57.3 30 58.4 30C 59.5 30 60.9 29.6 61.8 27.5L 69.2 10C 69.5 9.40002 69.5 8.89998 69.5 8.69998C 69.4 7.49998 68.4 6.6 67.1 6.6ZM 80.8 6.29995C 77.8 6.29995 74.9999 7.09998 72.8999 8.69998C 72.1999 9.19998 71.8999 9.8 71.8999 10.6C 71.8999 11.6 72.7 12.5 73.7 12.5C 74.1 12.5 74.6 12.3 75.1 12C 76.9 10.8 78.5999 10.3 80.3999 10.3C 83.8999 10.3 85.8999 12.1 85.8999 15.1L 85.8999 15.6C 78.0999 15.6 70.2 16.5 70.2 23.3C 70.2 28.2 74.4 30.4 78.5 30.4C 81.8 30.4 84.4 29.1 86.1 26.6L 86.1 27.8C 86.1 29.6 87.3 30.2 88.3 30.2C 88.5 30.2 90.3999 30.1 90.3999 27.8L 90.3999 15.4C 90.2999 9.70005 86.8 6.29995 80.8 6.29995ZM 84.8 19L 85.8 19L 85.8 20.1C 85.8 24.1 83.2999 26.6 79.3999 26.6C 78.2999 26.6 74.8999 26.4 74.8999 23.2C 74.8999 19.4 80.6 19 84.8 19ZM 102.5 10.8C 104.6 10.8 104.7 9.20005 104.7 8.90005C 104.7 7.90005 104.1 6.90005 102.5 6.90005L 98.3 6.90005L 98.3 2.6C 98.3 0.7 97.1 2.44141e-05 96 2.44141e-05C 95.6 2.44141e-05 93.7 0.0999999 93.7 2.6L 93.7 22.9C 93.7 27.6 95.9999 30.1 100.4 30.1C 101.5 30.1 102.6 29.9 103.4 29.6C 104.2 29.2 104.7 28.5 104.7 27.7C 104.7 26.6 103.9 25.8 102.8 25.8C 102.6 25.8 102.3 25.9 102 25.9C 101.6 26 101.3 26 101 26C 99.2 26 98.3999 24.8 98.3999 22.3L 98.3999 10.7L 102.5 10.7L 102.5 10.8ZM 118 6.29995C 110.9 6.29995 105.8 11.3 105.8 18.3C 105.8 21.7 107 24.7 109.3 27C 111.5 29.2 114.6 30.4 118 30.4C 125 30.4 130.3 25.2 130.3 18.3C 130.3 11.4 125.2 6.29995 118 6.29995ZM 118 26.4C 113.1 26.4 110.6 22.3 110.6 18.3C 110.6 12.8 114.4 10.3 118 10.3C 121.6 10.3 125.4 12.8 125.4 18.3C 125.5 23.8 121.6 26.4 118 26.4Z"/>
</defs>
</svg>
