<svg width="160" height="31" viewBox="0 0 160 31" version="1.1" xmlns="http://www.w3.org/2000/svg" xmlns:xlink="http://www.w3.org/1999/xlink">
<title>envato</title>
<desc>Created using Figma</desc>
<g id="Canvas" transform="translate(-678 -274)">
<g id="envato">
<g id="Canvas">
<g id="envato">
<g id="Vector">
<g id="Vector">
<use xlink:href="#path0_fill" transform="translate(678 277.004)" fill="#9B9B9B"/>
</g>
</g>
<g id="Vector">
<g id="Vector">
<use xlink:href="#path1_fill" transform="translate(707.24 274)" fill="#9B9B9B"/>
</g>
</g>
</g>
</g>
</g>
</g>
<defs>
<path id="path0_fill" d="M 20.444 0.196424C 19.644 -0.203576 17.3439 -0.00350219 14.5439 0.896497C 9.74398 4.1965 5.64403 9.0965 5.34403 16.8965C 5.24403 17.0965 4.84405 16.8964 4.74405 16.7964C 3.44405 14.2964 2.94398 11.6964 4.04398 7.7964C 4.24398 7.4964 3.544 6.99643 3.444 7.19643C 3.244 7.39643 2.24398 8.49643 1.54398 9.69643C -1.75602 15.3964 0.443951 22.6965 6.14395 25.8965C 11.9439 29.0965 19.144 26.9964 22.344 21.2964C 26.044 14.5964 22.544 1.39643 20.444 0.196424Z"/>
<path id="path1_fill" d="M 11.8 6.29993C 4.99993 6.29993 2.61744e-13 11.4 2.61744e-13 18.4C 2.61744e-13 25.4 4.9 30.4 12 30.4C 15.6 30.4 18.4 29.3 20.6 27C 21.3 26.3 21.2999 25.6 21.2999 25.3C 21.2999 24.2 20.4999 23.3 19.2999 23.3C 18.6999 23.3 18.2 23.5 17.7 24C 16.4 25.2 14.7 26.4 12 26.4C 8.1 26.4 4.99993 23.5 4.79993 19.8L 20.2 19.8C 21.9 19.8 22.7 19 22.7 17.4C 22.7 16.9 22.7 16.6 22.6 15.9C 21.7 9.90002 17.7 6.29993 11.8 6.29993ZM 11.8 10.1C 15.5 10.1 17.9 12.5 18 16.3L 4.79993 16.3C 5.09993 12.7 8.09993 10.1 11.8 10.1ZM 37.4 6.29993C 34.3 6.29993 31.2 8.09998 30 10.6L 30 9.09998C 30 6.69998 28.1999 6.59998 27.7999 6.59998C 26.6999 6.59998 25.6 7.29998 25.6 9.09998L 25.6 27.6C 25.6 30.1 27.6 30.2 27.9 30.2C 28.3 30.2 30.2 30.1 30.2 27.6L 30.2 17.7C 30.2 13.4 32.5999 10.4 36.0999 10.4C 39.4999 10.4 41.0999 12.6 41.0999 17.2L 41.0999 27.6C 41.0999 30.1 43.1 30.2 43.4 30.2C 43.7 30.2 45.7 30.1 45.7 27.6L 45.7 15.7C 45.9 11.1 43.7 6.29993 37.4 6.29993ZM 67.1 6.59998C 66 6.59998 65.2 7.2 64.8 8.5L 58.4 24.6L 52 8.5C 51.5 7.2 50.6999 6.59998 49.5999 6.59998C 48.2999 6.59998 47.2999 7.59992 47.2999 8.79992C 47.2999 9.09992 47.2999 9.49998 47.5999 10.1L 55 27.5C 55.9 29.6 57.3 30 58.4 30C 59.5 30 60.8999 29.6 61.7999 27.5L 69.2 9.99998C 69.5 9.4 69.5 8.89995 69.5 8.69995C 69.4 7.49995 68.4 6.59998 67.1 6.59998ZM 80.8 6.29993C 77.8 6.29993 74.9999 7.09995 72.8999 8.69995C 72.1999 9.19995 71.8999 9.79998 71.8999 10.6C 71.8999 11.6 72.7 12.5 73.7 12.5C 74.1 12.5 74.6 12.3 75.1 12C 76.9 10.8 78.5999 10.3 80.3999 10.3C 83.8999 10.3 85.8999 12.1 85.8999 15.1L 85.8999 15.6C 78.0999 15.6 70.2 16.5 70.2 23.3C 70.2 28.2 74.4 30.4 78.5 30.4C 81.8 30.4 84.4 29.1 86.1 26.6L 86.1 27.8C 86.1 29.6 87.3 30.2 88.3 30.2C 88.5 30.2 90.3999 30.1 90.3999 27.8L 90.3999 15.4C 90.2999 9.70002 86.8 6.29993 80.8 6.29993ZM 84.8 19L 85.8 19L 85.8 20.1C 85.8 24.1 83.2999 26.6 79.3999 26.6C 78.2999 26.6 74.8999 26.4 74.8999 23.2C 74.8999 19.4 80.6 19 84.8 19ZM 102.5 10.8C 104.6 10.8 104.7 9.20003 104.7 8.90003C 104.7 7.90003 104.1 6.90003 102.5 6.90003L 98.3 6.90003L 98.3 2.59998C 98.3 0.699976 97.1 -7.56414e-13 96 -7.56414e-13C 95.6 -7.56414e-13 93.7 0.0999756 93.7 2.59998L 93.7 22.9C 93.7 27.6 95.9999 30.1 100.4 30.1C 101.5 30.1 102.6 29.9 103.4 29.6C 104.2 29.2 104.7 28.5 104.7 27.7C 104.7 26.6 103.9 25.8 102.8 25.8C 102.6 25.8 102.3 25.9 102 25.9C 101.6 26 101.3 26 101 26C 99.2 26 98.3999 24.8 98.3999 22.3L 98.3999 10.7L 102.5 10.7L 102.5 10.8ZM 118 6.29993C 110.9 6.29993 105.8 11.3 105.8 18.3C 105.8 21.7 107 24.7 109.3 27C 111.5 29.2 114.6 30.4 118 30.4C 125 30.4 130.3 25.2 130.3 18.3C 130.3 11.4 125.2 6.29993 118 6.29993ZM 118 26.4C 113.1 26.4 110.6 22.3 110.6 18.3C 110.6 12.8 114.4 10.3 118 10.3C 121.6 10.3 125.4 12.8 125.4 18.3C 125.5 23.8 121.6 26.4 118 26.4Z"/>
</defs>
</svg>
