<?xml version="1.0" encoding="UTF-8"?>
<svg width="208px" height="40px" viewBox="0 0 208 40" version="1.1" xmlns="http://www.w3.org/2000/svg" xmlns:xlink="http://www.w3.org/1999/xlink">
    <!-- Generator: Sketch 41.2 (35397) - http://www.bohemiancoding.com/sketch -->
    <title>jumpshare</title>
    <desc>Created with Sketch.</desc>
    <defs></defs>
    <g id="Page-1" stroke="none" stroke-width="1" fill="none" fill-rule="evenodd">
        <path d="M3.15234375,37.7695312 C1.9081969,37.7695312 0.867191689,37.6108414 0.029296875,37.293457 L0.029296875,33.4658203 C1.09570846,33.7324232 2.022457,33.8657227 2.80957031,33.8657227 C5.297864,33.8657227 6.54199219,32.2915196 6.54199219,29.1430664 L6.54199219,2.15917969 L11.1123047,2.15917969 L11.1123047,28.9907227 C11.1123047,31.8344869 10.4362861,34.0085374 9.08422852,35.5129395 C7.73217097,37.0173415 5.75489583,37.7695312 3.15234375,37.7695312 Z M33.1713169,30 L32.542899,27.2387695 L32.3143833,27.2387695 C31.6923099,28.2163135 30.8068207,28.9843722 29.6578892,29.5429688 C28.5089577,30.1015653 27.1981798,30.3808594 25.7255161,30.3808594 C23.1737456,30.3808594 21.2694677,29.7461001 20.0126255,28.4765625 C18.7557833,27.2070249 18.1273716,25.2837043 18.1273716,22.706543 L18.1273716,8.93847656 L22.6405552,8.93847656 L22.6405552,21.9257812 C22.6405552,23.538094 22.97063,24.7473104 23.6307896,25.5534668 C24.2909491,26.3596232 25.3256068,26.7626953 26.7347935,26.7626953 C28.6137091,26.7626953 29.9943106,26.2009334 30.8766392,25.0773926 C31.7589678,23.9538518 32.2001255,22.0717905 32.2001255,19.4311523 L32.2001255,8.93847656 L36.6942661,8.93847656 L36.6942661,30 L33.1713169,30 Z M61.2859932,30 L56.7918526,30 L56.7918526,17.0126953 C56.7918526,15.4003826 56.4871681,14.1975137 55.8777901,13.4040527 C55.268412,12.6105917 54.3162731,12.2138672 53.0213448,12.2138672 C51.2947736,12.2138672 50.0284289,12.7756291 49.2222725,13.8991699 C48.4161161,15.0227107 48.013044,16.8920768 48.013044,19.5073242 L48.013044,30 L43.5379463,30 L43.5379463,8.93847656 L47.0418526,8.93847656 L47.6702706,11.699707 L47.8987862,11.699707 C48.4827735,10.6967723 49.3301771,9.92236601 50.4410225,9.37646484 C51.5518679,8.83056368 52.7737795,8.55761719 54.106794,8.55761719 C57.3441149,8.55761719 59.4896012,9.66209833 60.5433174,11.8710938 L60.8480049,11.8710938 C61.4700784,10.8300729 62.3460462,10.017581 63.4759346,9.43359375 C64.6058231,8.84960646 65.900732,8.55761719 67.3607002,8.55761719 C69.8743847,8.55761719 71.7056652,9.19237646 72.8545967,10.4619141 C74.0035283,11.7314517 74.5779854,13.6674675 74.5779854,16.2700195 L74.5779854,30 L70.1028877,30 L70.1028877,17.0126953 C70.1028877,15.4003826 69.7950295,14.1975137 69.1793038,13.4040527 C68.563578,12.6105917 67.6082653,12.2138672 66.313337,12.2138672 C64.5740705,12.2138672 63.3013781,12.7565864 62.4952217,13.842041 C61.6890654,14.9274957 61.2859932,16.5937388 61.2859932,18.8408203 L61.2859932,30 Z M91.9714703,30.3808594 C89.3054413,30.3808594 87.2361261,29.4223729 85.7634625,27.5053711 L85.4968609,27.5053711 C85.6745962,29.2827237 85.7634625,30.3618145 85.7634625,30.7426758 L85.7634625,39.3691406 L81.2883648,39.3691406 L81.2883648,8.93847656 L84.9065289,8.93847656 C85.0080919,9.33203322 85.2175625,10.2714769 85.5349469,11.7568359 L85.7634625,11.7568359 C87.1599538,9.62401277 89.2546595,8.55761719 92.0476422,8.55761719 C94.675585,8.55761719 96.7226837,9.5097561 98.1889996,11.4140625 C99.6553155,13.3183689 100.388462,15.9907055 100.388462,19.4311523 C100.388462,22.8715992 99.6426203,25.556631 98.1509137,27.4863281 C96.659207,29.4160253 94.5994131,30.3808594 91.9714703,30.3808594 Z M90.8860211,12.2138672 C89.1086684,12.2138672 87.8105857,12.7343698 86.991734,13.7753906 C86.1728822,14.8164115 85.7634625,16.4794808 85.7634625,18.7646484 L85.7634625,19.4311523 C85.7634625,21.9956183 86.1697084,23.8522892 86.9822125,25.0012207 C87.7947165,26.1501522 89.1213634,26.7246094 90.962193,26.7246094 C92.5110288,26.7246094 93.7043763,26.0898501 94.5422711,24.8203125 C95.3801659,23.5507749 95.799107,21.741711 95.799107,19.3930664 C95.799107,17.0317265 95.3833397,15.2448791 94.5517926,14.0324707 C93.7202454,12.8200623 92.4983338,12.2138672 90.8860211,12.2138672 Z M120.200404,24.0014648 C120.200404,26.0581158 119.451388,27.6354926 117.953334,28.7336426 C116.45528,29.8317926 114.309793,30.3808594 111.516811,30.3808594 C108.711133,30.3808594 106.457737,29.9555707 104.756557,29.1049805 L104.756557,25.2392578 C107.232155,26.3818417 109.536331,26.953125 111.669154,26.953125 C114.424051,26.953125 115.801479,26.1215903 115.801479,24.4584961 C115.801479,23.9252903 115.649136,23.4809588 115.344447,23.1254883 C115.039758,22.7700178 114.538299,22.4018574 113.840053,22.0209961 C113.141807,21.6401348 112.170625,21.2084985 110.926479,20.7260742 C108.501662,19.7866164 106.860809,18.8471727 106.003871,17.9077148 C105.146933,16.968257 104.718471,15.7495192 104.718471,14.2514648 C104.718471,12.4487215 105.44527,11.0490772 106.898891,10.0524902 C108.352511,9.05590322 110.329786,8.55761719 112.830775,8.55761719 C115.306374,8.55761719 117.648636,9.05907702 119.857631,10.0620117 L118.410365,13.4326172 C116.137893,12.4931594 114.227268,12.0234375 112.678432,12.0234375 C110.317092,12.0234375 109.13644,12.6962823 109.13644,14.0419922 C109.13644,14.7021517 109.444298,15.2607399 110.060024,15.7177734 C110.675749,16.174807 112.018265,16.8032187 114.087611,17.6030273 C115.826878,18.2758823 117.090049,18.8915988 117.877162,19.4501953 C118.664276,20.0087919 119.248254,20.6530725 119.629115,21.3830566 C120.009977,22.1130408 120.200404,22.9858348 120.200404,24.0014648 Z M144.030413,30 L139.536272,30 L139.536272,17.0507812 C139.536272,15.4257731 139.209371,14.2133829 138.555559,13.4135742 C137.901747,12.6137655 136.863916,12.2138672 135.442034,12.2138672 C133.563118,12.2138672 132.182517,12.7756291 131.300188,13.8991699 C130.417859,15.0227107 129.976702,16.904772 129.976702,19.5454102 L129.976702,30 L125.501604,30 L125.501604,0.369140625 L129.976702,0.369140625 L129.976702,7.89111328 C129.976702,9.097174 129.900531,10.3857353 129.748186,11.7568359 L130.033831,11.7568359 C130.643209,10.7412059 131.490612,9.95410436 132.576067,9.39550781 C133.661522,8.83691127 134.927866,8.55761719 136.375139,8.55761719 C141.47868,8.55761719 144.030413,11.1283923 144.030413,16.2700195 L144.030413,30 Z M163.899484,30 L163.004464,27.0673828 L162.85212,27.0673828 C161.83649,28.3496158 160.814528,29.2224098 159.786202,29.685791 C158.757877,30.1491722 157.437578,30.3808594 155.825265,30.3808594 C153.755919,30.3808594 152.140456,29.8222712 150.978829,28.7050781 C149.817202,27.587885 149.236398,26.0073344 149.236398,23.9633789 C149.236398,21.7924696 150.042542,20.1547907 151.654855,19.050293 C153.267167,17.9457953 155.723686,17.3427739 159.024484,17.2412109 L162.661691,17.1269531 L162.661691,16.003418 C162.661691,14.6577081 162.347485,13.6516147 161.719064,12.9851074 C161.090643,12.3186002 160.116287,11.9853516 158.795968,11.9853516 C157.716861,11.9853516 156.682203,12.1440414 155.691964,12.4614258 C154.701725,12.7788102 153.749586,13.1533182 152.835519,13.5849609 L151.388253,10.3857422 C152.530837,9.78905952 153.781313,9.33520663 155.139718,9.02416992 C156.498123,8.71313321 157.780337,8.55761719 158.986398,8.55761719 C161.665122,8.55761719 163.68683,9.14159572 165.051583,10.3095703 C166.416336,11.4775449 167.098702,13.3119992 167.098702,15.8129883 L167.098702,30 L163.899484,30 Z M157.234444,26.953125 C158.859453,26.953125 160.163883,26.4992721 161.147775,25.5915527 C162.131666,24.6838334 162.623605,23.411141 162.623605,21.7734375 L162.623605,19.9453125 L159.919503,20.0595703 C157.812071,20.1357426 156.279127,20.488034 155.320626,21.1164551 C154.362125,21.7448762 153.882882,22.7065365 153.882882,24.0014648 C153.882882,24.9409227 154.162176,25.667722 154.720773,26.1818848 C155.279369,26.6960475 156.117251,26.953125 157.234444,26.953125 Z M184.492187,8.55761719 C185.393559,8.55761719 186.136227,8.62109312 186.720215,8.74804688 L186.282226,12.918457 C185.647457,12.7661125 184.987308,12.6899414 184.301758,12.6899414 C182.51171,12.6899414 181.061285,13.2739199 179.950439,14.4418945 C178.839594,15.6098691 178.284179,17.1269438 178.284179,18.9931641 L178.284179,30 L173.809082,30 L173.809082,8.93847656 L177.312988,8.93847656 L177.90332,12.6518555 L178.131836,12.6518555 C178.830081,11.3950132 179.740961,10.3984412 180.864502,9.66210938 C181.988042,8.92577757 183.197259,8.55761719 184.492187,8.55761719 Z M199.505301,30.3808594 C196.229894,30.3808594 193.66864,29.4255467 191.821463,27.5148926 C189.974286,25.6042385 189.050711,22.9731613 189.050711,19.621582 C189.050711,16.1811351 189.907636,13.4770606 191.621512,11.5092773 C193.335388,9.54149407 195.690345,8.55761719 198.686453,8.55761719 C201.466741,8.55761719 203.663008,9.40184703 205.275321,11.090332 C206.887633,12.778817 207.693778,15.102036 207.693778,18.0600586 L207.693778,20.4785156 L193.65911,20.4785156 C193.722586,22.5224712 194.274827,24.0935004 195.315848,25.1916504 C196.356869,26.2898004 197.823163,26.8388672 199.714774,26.8388672 C200.958921,26.8388672 202.117356,26.7214367 203.190115,26.4865723 C204.262875,26.2517078 205.414963,25.8613309 206.646414,25.3154297 L206.646414,28.9526367 C205.554612,29.4731471 204.450131,29.8413075 203.332938,30.0571289 C202.215745,30.2729503 200.939878,30.3808594 199.505301,30.3808594 Z M198.686453,11.9472656 C197.264571,11.9472656 196.125178,12.3979447 195.26824,13.2993164 C194.411303,14.2006881 193.900321,15.5146398 193.735281,17.2412109 L203.294852,17.2412109 C203.269461,15.5019444 202.85052,14.1848189 202.038016,13.2897949 C201.225512,12.3947709 200.108335,11.9472656 198.686453,11.9472656 Z" id="Jumpshare" fill="#3FA7EE"></path>
    </g>
</svg>