<?xml version="1.0" encoding="UTF-8" standalone="no"?><!DOCTYPE svg PUBLIC "-//W3C//DTD SVG 1.1//EN" "http://www.w3.org/Graphics/SVG/1.1/DTD/svg11.dtd"><svg width="100%" height="100%" viewBox="0 0 5 7" version="1.1" xmlns="http://www.w3.org/2000/svg" xmlns:xlink="http://www.w3.org/1999/xlink" xml:space="preserve" style="fill-rule:evenodd;clip-rule:evenodd;stroke-linejoin:round;stroke-miterlimit:1.41421;"><rect id="logo" x="0" y="0" width="4.803" height="6.475" style="fill:none;"/><clipPath id="_clip1"><rect x="0" y="0" width="4.803" height="6.475"/></clipPath><g clip-path="url(#_clip1)"><g id="Layer-1"><g><path d="M2.155,6.475l-1.574,0c-0.375,0 -0.577,-0.297 -0.577,-0.577l0,-5.302l0.646,0l0,5.232l1.505,0l0,0.647Z" style="fill:#050505;fill-rule:nonzero;"/><path d="M0.65,5.879l-0.646,0l0,-5.295c0,-0.28 0.202,-0.577 0.577,-0.577l1.574,0l0,0.646l-1.505,0l0,3.472c0.192,-0.11 0.427,-0.255 0.673,-0.431l0.377,0.526c-0.43,0.308 -0.826,0.526 -1.05,0.641l0,1.018Z" style="fill:#050505;fill-rule:nonzero;"/><path d="M3.336,6.475l-0.003,0l-1.572,0c-0.376,0 -0.578,-0.297 -0.578,-0.577l0,-5.302l0.647,0l0,5.232l1.508,0l0.001,0c0.137,0 0.53,-0.053 0.707,-0.297c0.141,-0.194 0.145,-0.498 0.011,-0.906c-0.023,-0.071 -0.051,-0.143 -0.083,-0.215c-0.143,-0.319 -0.373,-0.64 -0.682,-0.956l0.461,-0.453c0.364,0.37 0.637,0.755 0.811,1.145c0.041,0.091 0.078,0.185 0.108,0.278c0.203,0.618 0.167,1.12 -0.105,1.492c-0.4,0.545 -1.153,0.559 -1.231,0.559" style="fill:#050505;fill-rule:nonzero;"/><path d="M1.849,0.653l0,3.471c0.665,-0.381 1.86,-1.19 2.208,-2.251c0.135,-0.41 0.132,-0.718 -0.01,-0.916c-0.211,-0.295 -0.691,-0.304 -0.695,-0.304l-1.503,0Zm0,5.226l-0.647,0l0,-5.295c0,-0.28 0.202,-0.577 0.578,-0.577l1.573,0c0.033,0 0.809,0.006 1.216,0.568c0.272,0.375 0.307,0.88 0.103,1.5c-0.489,1.489 -2.237,2.487 -2.823,2.786l0,1.018Z" style="fill:#050505;fill-rule:nonzero;"/><path d="M0.65,0.653l0.105,0c-0.058,0 -0.105,0.047 -0.105,0.105l0,-0.105Z" style="fill:#231f20;"/><path d="M0.65,0.653l0,0.105c0,-0.058 0.047,-0.105 0.105,-0.105l-0.105,0Z" style="fill:#050505;fill-rule:nonzero;"/><path d="M1.849,0.653l0.105,0c-0.058,0 -0.105,0.047 -0.105,0.105l0,-0.105Z" style="fill:#231f20;"/><path d="M1.849,0.653l0,0.105c0,-0.058 0.047,-0.105 0.105,-0.105l-0.105,0Z" style="fill:#050505;fill-rule:nonzero;"/><path d="M1.183,0.653l0,0.105c0,-0.058 -0.047,-0.105 -0.105,-0.105l0.105,0Z" style="fill:#231f20;"/><path d="M1.078,0.653c0.058,0 0.105,0.047 0.105,0.105l0,-0.105l-0.105,0Z" style="fill:#050505;fill-rule:nonzero;"/><path d="M1.183,5.828l-0.105,0c0.058,0 0.105,-0.046 0.105,-0.104l0,0.104Z" style="fill:#231f20;"/><path d="M1.078,5.828l0.105,0l0,-0.104c0,0.057 -0.047,0.104 -0.105,0.104Z" style="fill:#050505;fill-rule:nonzero;"/><path d="M0.65,5.828l0.105,0c-0.058,0 -0.105,-0.046 -0.105,-0.104l0,0.104Z" style="fill:#231f20;"/><path d="M0.65,5.828l0.105,0c-0.058,0 -0.105,-0.047 -0.105,-0.104l0,0.104Z" style="fill:#050505;fill-rule:nonzero;"/><path d="M1.849,5.828l0.105,0c-0.058,0 -0.105,-0.046 -0.105,-0.104l0,0.104Z" style="fill:#231f20;"/><path d="M1.849,5.828l0.105,0c-0.058,0 -0.105,-0.047 -0.105,-0.104l0,0.104Z" style="fill:#050505;fill-rule:nonzero;"/><path d="M1.847,4.133l0.125,-0.083c-0.063,0.041 -0.123,0.021 -0.123,-0.04l-0.002,0.123Z" style="fill:#231f20;"/><clipPath id="_clip2"><path d="M1.847,4.133l0.125,-0.083c-0.063,0.042 -0.123,0.021 -0.123,-0.04l-0.002,0.123Z"/></clipPath><g clip-path="url(#_clip2)"><path d="M1.844,4.23l0.258,-0.143l-0.144,-0.258l-0.257,0.144l0.143,0.257Z" style="fill:#050505;"/></g><path d="M3.549,3.594l-0.1,0.191c0.05,-0.057 0.102,-0.063 0.141,0.006l-0.041,-0.197Z" style="fill:#231f20;"/><clipPath id="_clip3"><path d="M3.449,3.785c0.05,-0.057 0.102,-0.063 0.141,0.006l-0.041,-0.197l-0.1,0.191Z"/></clipPath><g clip-path="url(#_clip3)"><path d="M3.526,3.577l-0.211,0.206l0.206,0.211l0.211,-0.206l-0.206,-0.211Z" style="fill:#050505;"/></g><path d="M0.647,4.133l0.122,-0.074c-0.063,0.041 -0.119,0.012 -0.119,-0.049l-0.003,0.123Z" style="fill:#231f20;"/><clipPath id="_clip4"><path d="M0.647,4.133l0.113,-0.069c-0.059,0.033 -0.11,0.004 -0.11,-0.054l-0.003,0.123Zm0.113,-0.069c0.003,-0.002 0.006,-0.003 0.009,-0.005l-0.009,0.005Z"/></clipPath><g clip-path="url(#_clip4)"><path d="M0.644,4.23l0.258,-0.143l-0.143,-0.258l-0.258,0.144l0.143,0.257Z" style="fill:#050505;"/></g><path d="M1.238,3.825l-0.055,-0.168c0,0.056 0,0.135 -0.1,0.202l0.155,-0.034Z" style="fill:#050505;"/><path d="M1.222,4.519l-0.157,0.113c0.062,-0.045 0.118,-0.02 0.118,0.042l0.039,-0.155Z" style="fill:#231f20;"/><clipPath id="_clip5"><path d="M1.065,4.632c0.062,-0.045 0.118,-0.02 0.118,0.042l0.039,-0.155l-0.157,0.113Z"/></clipPath><g clip-path="url(#_clip5)"><path d="M1.186,4.46l-0.258,0.143l0.143,0.258l0.258,-0.143l-0.143,-0.258Z" style="fill:#050505;"/></g><path d="M1.793,4.847l0.055,0.168c0,-0.056 0.007,-0.142 0.107,-0.209l-0.162,0.041Z" style="fill:#050505;"/><path d="M0.596,4.846l0.054,0.168c0,-0.056 0.007,-0.142 0.107,-0.21l-0.161,0.042Z" style="fill:#050505;"/></g></g></g></svg>