<svg width="87" height="120" viewBox="0 0 87 120" version="1.1" xmlns="http://www.w3.org/2000/svg" xmlns:xlink="http://www.w3.org/1999/xlink">
<title>logo</title>
<desc>Created using Figma</desc>
<g id="Canvas" transform="translate(-266 6)">
<g id="logo">
<use xlink:href="#path0_fill" transform="translate(266 -6)" fill="#050505"/>
</g>
</g>
<defs>
<path id="path0_fill" fill-rule="evenodd" d="M 12 18C 12 14.6863 14.6863 12 18 12C 21.3137 12 24 14.6863 24 18L 24 30L 24 61.0294C 24 77.0657 43.3885 85.0967 54.7279 73.7574L 55.7574 72.7279C 58.0948 70.3905 61.8809 70.3848 64.2254 72.7107C 64.2312 72.7164 64.2369 72.7222 64.2427 72.7279L 68.7868 77.2721C 80.1262 88.6115 72.0952 108 56.0589 108L 18 108C 14.6863 108 12 105.314 12 102L 12 30L 12 18ZM 0 30L 0 18C 0 8.05887 8.05887 0 18 0L 30 0L 42 0L 56.0589 0C 82.786 0 96.171 32.3143 77.2721 51.2132L 72.728 55.7574C 70.3877 58.0976 70.3848 61.8902 72.7194 64.2341L 72.728 64.2426L 77.2721 68.7868C 96.171 87.6857 82.786 120 56.0589 120L 18 120C 8.05887 120 0 111.941 0 102L 0 30ZM 64.2427 47.2721L 68.7868 42.7279C 80.1262 31.3885 72.0952 12 56.0589 12L 42 12C 38.6863 12 36 14.6863 36 18L 36 30L 36 61.0294C 36 66.3749 42.4629 69.0519 46.2426 65.2721L 47.2721 64.2426L 55.7574 55.7574L 64.2427 47.2721Z"/>
</defs>
</svg>
