<svg width="87" height="120" viewBox="0 0 87 120" fill="none" xmlns="http://www.w3.org/2000/svg">
<rect width="86.119" height="120" fill="black" fill-opacity="0"/>
<rect width="86.119" height="120" fill="black" fill-opacity="0"/>
<rect width="86.119" height="120" fill="black" fill-opacity="0"/>
<path fill-rule="evenodd" clip-rule="evenodd" d="M12 18C12 14.6863 14.6863 12 18 12C21.3137 12 24 14.6863 24 18V30V61.0294C24 77.0657 43.3885 85.0967 54.7279 73.7574L55.7574 72.7279C58.0948 70.3905 61.8809 70.3848 64.2254 72.7107C64.2312 72.7164 64.2369 72.7222 64.2427 72.7279L68.7868 77.2721C80.1262 88.6115 72.0952 108 56.0589 108H18C14.6863 108 12 105.314 12 102V30V18ZM0 30V18C0 8.05887 8.05887 0 18 0H30H42H56.0589C82.786 0 96.171 32.3143 77.2721 51.2132L72.728 55.7574C70.3877 58.0976 70.3848 61.8902 72.7194 64.2341L72.728 64.2426L77.2721 68.7868C96.171 87.6857 82.786 120 56.0589 120H18C8.05887 120 0 111.941 0 102V30ZM64.2427 47.2721L68.7868 42.7279C80.1262 31.3885 72.0952 12 56.0589 12H42C38.6863 12 36 14.6863 36 18V30V61.0294C36 66.3749 42.4629 69.0519 46.2426 65.2721L47.2721 64.2426L55.7574 55.7574L64.2427 47.2721Z" fill="black"/>
</svg>
