<?xml version="1.0" encoding="UTF-8"?>
<svg width="108px" height="52px" viewBox="0 0 108 52" version="1.1" xmlns="http://www.w3.org/2000/svg" xmlns:xlink="http://www.w3.org/1999/xlink">
    <!-- Generator: Sketch 41.2 (35397) - http://www.bohemiancoding.com/sketch -->
    <title>lugg</title>
    <desc>Created with Sketch.</desc>
    <defs></defs>
    <g id="Page-1" stroke="none" stroke-width="1" fill="none" fill-rule="evenodd">
        <g id="Unknown" fill="#424A81">
            <g id="Page-1">
                <g id="Artboard-1">
                    <path d="M106.752723,7.64843779 C106.633855,7.21044316 106.174177,6.77073253 105.530169,6.96885937 C104.471846,7.29421105 102.517138,7.85657189 99.4753959,8.13818063 C97.047802,8.36403989 93.2004018,8.22823779 93.0881392,8.22823779 L93.0864167,8.22823779 L93.0861296,8.22823779 C82.4853951,8.24367632 79.7000505,14.9925729 79.7000505,19.1086384 C79.7000505,21.1459437 80.2955365,23.5200365 81.9493446,25.4812932 C80.9162891,26.477074 79.5108399,28.3291183 79.5108399,31.0345661 C79.5108399,34.5702596 81.7156285,36.3834216 81.7156285,36.3834216 C81.7156285,36.3834216 79.3339742,39.2418246 79.3339742,42.7603649 C79.3339742,49.4417888 84.458767,52 93.0875651,52 C101.192656,52 106.855512,49.2285095 106.855512,42.3498167 C106.855512,35.0214061 101.975344,32.2453423 96.3808227,32.2453423 C94.9351771,32.2453423 90.1609565,32.2441983 88.4525974,32.2441983 C87.4712233,32.2441983 86.504205,31.3982281 86.504205,30.2383421 C86.504205,29.5764888 86.794483,29.0927506 87.1757777,28.7413825 C88.6960745,29.1942437 90.4963129,29.4561266 92.6209955,29.4561266 L93.5524107,29.4561266 C103.71098,29.4561266 106.473643,23.4965927 106.473643,19.1086384 C106.473643,17.5685093 106.08316,15.6589995 105.039481,13.8718539 C105.988411,13.6168336 106.806701,13.3661019 107.365723,13.1167988 C107.752185,12.9449744 108.106778,12.5421455 107.970109,11.9923645 C107.600586,10.5122735 106.802393,7.83398611 106.752723,7.64843779 L106.752723,7.64843779 Z M93.0864167,24.0438011 C90.5505781,24.0329372 88.8364759,21.9907713 88.8364759,18.8499015 C88.8364759,15.4805998 90.9353178,13.6477106 93.2408868,13.6337021 C95.5458802,13.6477106 97.3372174,15.4805998 97.3372174,18.8499015 C97.3372174,21.9907713 95.6234023,24.0329372 93.0864167,24.0438011 L93.0864167,24.0438011 Z M89.2456209,38.6548774 C89.2456209,38.6548774 91.4440935,38.6508747 95.3400158,38.6508747 C97.6269213,38.6508747 98.7191239,40.1649875 98.7191239,42.0859332 C98.7191239,43.8253332 97.8290535,45.7665766 93.3393677,45.7665766 C88.6840154,45.7665766 87.8016978,44.0194574 87.8016978,42.4973394 C87.8016978,40.0091736 89.2456209,38.6548774 89.2456209,38.6548774 Z M75.9353427,7.64843779 C75.8164744,7.21044316 75.3567963,6.77073253 74.7127882,6.96885937 C73.6544661,7.29421105 71.6997577,7.85657189 68.6580156,8.13818063 C66.2304217,8.36403989 62.3830229,8.22823779 62.2707589,8.22823779 L62.2690364,8.22823779 L62.2687493,8.22823779 C51.6680155,8.24367632 48.8826707,14.9925729 48.8826707,19.1086384 C48.8826707,21.1459437 49.4781563,23.5200365 51.1319638,25.4812932 C50.0989083,26.477074 48.6934591,28.3291183 48.6934591,31.0345661 C48.6934591,34.5702596 50.8979614,36.3834216 50.8979614,36.3834216 C50.8979614,36.3834216 48.5165937,39.2418246 48.5165937,42.7603649 C48.5165937,49.4417888 53.6413867,52 62.2701848,52 C70.3752758,52 76.0381314,49.2285095 76.0381314,42.3498167 C76.0381314,35.0214061 71.1579641,32.2453423 65.5634438,32.2453423 C64.1177968,32.2453423 59.3435775,32.2441983 57.6352171,32.2441983 C56.653843,32.2441983 55.6868247,31.3982281 55.6868247,30.2383421 C55.6868247,29.5764888 55.9771027,29.0927506 56.3583974,28.7413825 C57.8786942,29.1942437 59.6789326,29.4561266 61.8036152,29.4561266 L62.7350304,29.4561266 C72.8935993,29.4561266 75.6562625,23.4965927 75.6562625,19.1086384 C75.6562625,17.5685093 75.2657796,15.6589995 74.2221005,13.8718539 C75.1710308,13.6168336 75.9893209,13.3661019 76.5483425,13.1167988 C76.9348048,12.9449744 77.2893975,12.5421455 77.1527283,11.9923645 C76.7832056,10.5122735 75.9850145,7.83398611 75.9353427,7.64843779 Z M62.2690364,24.0438011 C59.7331978,24.0329372 58.0190956,21.9907713 58.0190956,18.8499015 C58.0190956,15.4805998 60.1179375,13.6477106 62.4235065,13.6337021 C64.7284999,13.6477106 66.5198371,15.4805998 66.5198371,18.8499015 C66.5198371,21.9907713 64.806022,24.0329372 62.2690364,24.0438011 Z M58.4282406,38.6548774 C58.4282406,38.6548774 60.6267132,38.6508747 64.5226355,38.6508747 C66.809541,38.6508747 67.9017436,40.1649875 67.9017436,42.0859332 C67.9017436,43.8253332 67.0116732,45.7665766 62.5219874,45.7665766 C57.8666351,45.7665766 56.9843175,44.0194574 56.9843175,42.4973394 C56.9843175,40.0091736 58.4282406,38.6548774 58.4282406,38.6548774 Z M13.5310732,30.2813406 C13.0929291,30.3588193 12.5385016,30.422574 11.8867407,30.422574 C10.2062312,30.422574 9.20246195,29.8216168 9.20246195,27.9501327 L9.20246195,0.961696211 C9.20246195,0.357594421 8.67186547,-0.0806862105 8.09331999,0.0125169474 C5.87762002,0.372174947 1.0873209,1.13152 0.791875139,1.17897821 C0.407422344,1.24016032 0.000287088608,1.58580979 0.000287088608,2.09184916 C0.000287088608,5.82081021 0,21.8044799 0,29.0365427 C0,37.2543805 6.04501059,38.0323074 9.44134524,38.0323074 C11.5984728,38.0323074 13.1092948,37.7329721 13.9247138,37.5154041 C14.3947282,37.3890373 14.6330372,37.0050775 14.6330372,36.6025332 L14.6330372,31.2162254 C14.6330372,30.7267685 14.2012097,30.1626931 13.5310732,30.2813406 Z M43.2681094,8.75806305 L35.9560412,8.75806305 C35.3786442,8.75806305 35.0094088,9.23494 35.0094088,9.65320884 C35.0094088,9.96740926 35.0022307,27.4211655 35.0022307,27.4211655 C34.3384108,28.161068 32.159175,30.3444673 29.572804,30.3444673 C27.9359366,30.3444673 27.2123959,29.5402366 27.2123959,27.3859998 L27.2123959,9.70238305 C27.2123959,9.16746863 26.7831525,8.75806305 26.2442295,8.75806305 L18.9261318,8.75806305 C18.4983239,8.75806305 18.0059142,9.11800842 18.0059142,9.68837316 L18.0059142,28.9244143 C18.0059142,33.5488058 19.3407321,38.0328219 25.6720007,38.0328219 C29.6844935,38.0328219 33.2037152,35.3679711 35.2052241,33.4658959 C35.529669,34.5794663 36.1306098,36.642502 36.1794201,36.8297649 C36.2474673,37.0865013 36.525686,37.5087714 37.0809748,37.5087714 L43.2876337,37.5087714 C43.6146626,37.5087714 44.2158904,37.2540371 44.2158904,36.5398649 L44.2158904,9.670648 C44.2158904,9.19262705 43.805884,8.75806305 43.2681094,8.75806305 Z" id="logo-dark"></path>
                </g>
            </g>
        </g>
    </g>
</svg>