<svg width="108" height="52" viewBox="0 0 108 52" version="1.1" xmlns="http://www.w3.org/2000/svg" xmlns:xlink="http://www.w3.org/1999/xlink">
<title>lugg</title>
<desc>Created using Figma</desc>
<g id="Canvas" transform="translate(-838 -253)">
<g id="lugg">
<g id="Page 1">
<g id="Unknown">
<g id="Page 1">
<g id="Artboard 1">
<g id="logo dark">
<use xlink:href="#path0_fill" transform="translate(838 253)" fill="#9B9B9B"/>
</g>
</g>
</g>
</g>
</g>
</g>
</g>
<defs>
<path id="path0_fill" fill-rule="evenodd" d="M 106.753 7.64844C 106.634 7.21044 106.174 6.77073 105.53 6.96886C 104.472 7.29421 102.517 7.85657 99.4754 8.13818C 97.0478 8.36404 93.2004 8.22824 93.0881 8.22824L 93.0864 8.22824L 93.0861 8.22824C 82.4854 8.24368 79.7001 14.9926 79.7001 19.1086C 79.7001 21.1459 80.2955 23.52 81.9493 25.4813C 80.9163 26.4771 79.5108 28.3291 79.5108 31.0346C 79.5108 34.5703 81.7156 36.3834 81.7156 36.3834C 81.7156 36.3834 79.334 39.2418 79.334 42.7604C 79.334 49.4418 84.4588 52 93.0876 52C 101.193 52 106.856 49.2285 106.856 42.3498C 106.856 35.0214 101.975 32.2453 96.3808 32.2453C 94.9352 32.2453 90.161 32.2442 88.4526 32.2442C 87.4712 32.2442 86.5042 31.3982 86.5042 30.2383C 86.5042 29.5765 86.7945 29.0928 87.1758 28.7414C 88.6961 29.1942 90.4963 29.4561 92.621 29.4561L 93.5524 29.4561C 103.711 29.4561 106.474 23.4966 106.474 19.1086C 106.474 17.5685 106.083 15.659 105.039 13.8719C 105.988 13.6168 106.807 13.3661 107.366 13.1168C 107.752 12.945 108.107 12.5421 107.97 11.9924C 107.601 10.5123 106.802 7.83399 106.753 7.64844ZM 93.0864 24.0438C 90.5506 24.0329 88.8365 21.9908 88.8365 18.8499C 88.8365 15.4806 90.9353 13.6477 93.2409 13.6337C 95.5459 13.6477 97.3372 15.4806 97.3372 18.8499C 97.3372 21.9908 95.6234 24.0329 93.0864 24.0438ZM 89.2456 38.6549C 89.2456 38.6549 91.4441 38.6509 95.34 38.6509C 97.6269 38.6509 98.7191 40.165 98.7191 42.0859C 98.7191 43.8253 97.8291 45.7666 93.3394 45.7666C 88.684 45.7666 87.8017 44.0195 87.8017 42.4973C 87.8017 40.0092 89.2456 38.6549 89.2456 38.6549ZM 75.9353 7.64844C 75.8165 7.21044 75.3568 6.77073 74.7128 6.96886C 73.6545 7.29421 71.6998 7.85657 68.658 8.13818C 66.2304 8.36404 62.383 8.22824 62.2708 8.22824L 62.269 8.22824L 62.2687 8.22824C 51.668 8.24368 48.8827 14.9926 48.8827 19.1086C 48.8827 21.1459 49.4782 23.52 51.132 25.4813C 50.0989 26.4771 48.6935 28.3291 48.6935 31.0346C 48.6935 34.5703 50.898 36.3834 50.898 36.3834C 50.898 36.3834 48.5166 39.2418 48.5166 42.7604C 48.5166 49.4418 53.6414 52 62.2702 52C 70.3753 52 76.0381 49.2285 76.0381 42.3498C 76.0381 35.0214 71.158 32.2453 65.5634 32.2453C 64.1178 32.2453 59.3436 32.2442 57.6352 32.2442C 56.6538 32.2442 55.6868 31.3982 55.6868 30.2383C 55.6868 29.5765 55.9771 29.0928 56.3584 28.7414C 57.8787 29.1942 59.6789 29.4561 61.8036 29.4561L 62.735 29.4561C 72.8936 29.4561 75.6563 23.4966 75.6563 19.1086C 75.6563 17.5685 75.2658 15.659 74.2221 13.8719C 75.171 13.6168 75.9893 13.3661 76.5483 13.1168C 76.9348 12.945 77.2894 12.5421 77.1527 11.9924C 76.7832 10.5123 75.985 7.83399 75.9353 7.64844ZM 62.269 24.0438C 59.7332 24.0329 58.0191 21.9908 58.0191 18.8499C 58.0191 15.4806 60.1179 13.6477 62.4235 13.6337C 64.7285 13.6477 66.5198 15.4806 66.5198 18.8499C 66.5198 21.9908 64.806 24.0329 62.269 24.0438ZM 58.4282 38.6549C 58.4282 38.6549 60.6267 38.6509 64.5226 38.6509C 66.8095 38.6509 67.9017 40.165 67.9017 42.0859C 67.9017 43.8253 67.0117 45.7666 62.522 45.7666C 57.8666 45.7666 56.9843 44.0195 56.9843 42.4973C 56.9843 40.0092 58.4282 38.6549 58.4282 38.6549ZM 13.5311 30.2813C 13.0929 30.3588 12.5385 30.4226 11.8867 30.4226C 10.2062 30.4226 9.20246 29.8216 9.20246 27.9501L 9.20246 0.961696C 9.20246 0.357594 8.67187 -0.0806864 8.09332 0.0125167C 5.87762 0.372175 1.08732 1.13152 0.791875 1.17898C 0.407422 1.24016 0.000287089 1.58581 0.000287089 2.09185C 0.000287089 5.82081 0 21.8045 0 29.0365C 0 37.2544 6.04501 38.0323 9.44135 38.0323C 11.5985 38.0323 13.1093 37.733 13.9247 37.5154C 14.3947 37.389 14.633 37.0051 14.633 36.6025L 14.633 31.2162C 14.633 30.7268 14.2012 30.1627 13.5311 30.2813ZM 43.2681 8.75806L 35.956 8.75806C 35.3786 8.75806 35.0094 9.23494 35.0094 9.65321C 35.0094 9.96741 35.0022 27.4212 35.0022 27.4212C 34.3384 28.1611 32.1592 30.3445 29.5728 30.3445C 27.9359 30.3445 27.2124 29.5402 27.2124 27.386L 27.2124 9.70238C 27.2124 9.16747 26.7832 8.75806 26.2442 8.75806L 18.9261 8.75806C 18.4983 8.75806 18.0059 9.11801 18.0059 9.68837L 18.0059 28.9244C 18.0059 33.5488 19.3407 38.0328 25.672 38.0328C 29.6845 38.0328 33.2037 35.368 35.2052 33.4659C 35.5297 34.5795 36.1306 36.6425 36.1794 36.8298C 36.2475 37.0865 36.5257 37.5088 37.081 37.5088L 43.2876 37.5088C 43.6147 37.5088 44.2159 37.254 44.2159 36.5399L 44.2159 9.67065C 44.2159 9.19263 43.8059 8.75806 43.2681 8.75806Z"/>
</defs>
</svg>
