<?xml version="1.0" encoding="UTF-8"?>
<svg width="156px" height="46px" viewBox="0 0 156 46" version="1.1" xmlns="http://www.w3.org/2000/svg" xmlns:xlink="http://www.w3.org/1999/xlink">
    <!-- Generator: Sketch 41.2 (35397) - http://www.bohemiancoding.com/sketch -->
    <title>punch</title>
    <desc>Created with Sketch.</desc>
    <defs></defs>
    <g id="Page-1" stroke="none" stroke-width="1" fill="none" fill-rule="evenodd">
        <g id="punch_000000" fill="#FFBB00">
            <g id="Layer_1">
                <path d="M30.1275,24.2105263 C30.1275,32.4421053 24.6675,38.0105263 17.4525,38.0105263 C14.235,38.0105263 11.6025,36.9936842 9.75,35.1052632 L9.75,46 L0,46 L0,11.1368421 L9.75,11.1368421 L9.75,13.2673684 C11.6025,11.4273684 14.235,10.3621053 17.4525,10.3621053 C24.6675,10.3136842 30.1275,15.9305263 30.1275,24.2105263 Z M20.3775,24.2105263 C20.3775,20.9178947 18.28125,18.4 15.06375,18.4 C12.09,18.4 9.70125,20.8694737 9.70125,24.2105263 C9.70125,27.4547368 12.09,29.9242105 15.06375,29.9242105 C18.33,29.9242105 20.3775,27.4547368 20.3775,24.2105263 Z" id="Shape"></path>
                <path d="M60.98625,37.2357895 L51.23625,37.2357895 L51.23625,34.6210526 C49.18875,36.8 46.5075,38.0105263 43.33875,38.0105263 C37.39125,38.0105263 33.4425,33.9431579 33.4425,27.3094737 L33.4425,11.1368421 L43.24125,11.1368421 L43.24125,25.2273684 C43.24125,27.6968421 44.70375,29.3431579 46.94625,29.3431579 C49.53,29.3431579 51.285,27.4063158 51.285,23.7747368 L51.285,11.1368421 L61.035,11.1368421 L61.035,37.2357895 L60.98625,37.2357895 Z" id="Shape"></path>
                <path d="M93.405,21.0147368 L93.405,37.1873684 L83.60625,37.1873684 L83.60625,23.0968421 C83.60625,20.6273684 82.14375,18.9810526 79.90125,18.9810526 C77.3175,18.9810526 75.5625,20.8694737 75.5625,24.5494737 L75.5625,37.2357895 L65.8125,37.2357895 L65.8125,11.1368421 L75.5625,11.1368421 L75.5625,13.7515789 C77.61,11.5726316 80.29125,10.3621053 83.46,10.3621053 C89.45625,10.3136842 93.405,14.4294737 93.405,21.0147368 Z" id="Shape"></path>
                <path d="M124.995,27.4063158 C123.9225,33.8463158 118.12125,38.0105263 111.29625,38.0105263 C103.35,38.0105263 96.72,32.4421053 96.72,24.2105263 C96.72,15.9305263 103.35,10.3621053 111.29625,10.3621053 C118.0725,10.3621053 123.7275,14.4294737 124.94625,20.8210526 L115.97625,22.6610526 C115.39125,19.9010526 113.5875,18.5452632 111.29625,18.5452632 C108.17625,18.5452632 106.08,21.0631579 106.08,24.2105263 C106.08,27.3578947 108.17625,29.8273684 111.29625,29.8273684 C113.5875,29.8273684 115.39125,28.4231579 116.07375,25.7115789 L124.995,27.4063158 Z" id="Shape"></path>
                <path d="M156,21.0147368 L156,37.1873684 L146.20125,37.1873684 L146.20125,23.0968421 C146.20125,20.6273684 144.73875,18.9810526 142.49625,18.9810526 C139.9125,18.9810526 138.1575,20.8694737 138.1575,24.5494737 L138.1575,37.2357895 L128.4075,37.2357895 L128.4075,0 L138.1575,0 L138.1575,13.7515789 C140.205,11.5726316 142.88625,10.3621053 146.055,10.3621053 C152.05125,10.3136842 156,14.4294737 156,21.0147368 Z" id="Shape"></path>
            </g>
        </g>
    </g>
</svg>