<svg width="156" height="46" viewBox="0 0 156 46" version="1.1" xmlns="http://www.w3.org/2000/svg" xmlns:xlink="http://www.w3.org/1999/xlink">
<title>punch</title>
<desc>Created using Figma</desc>
<g id="Canvas" transform="translate(-946 -259)">
<g id="punch">
<g id="Page 1">
<g id="punch 000000">
<g id="Layer 1">
<g id="Shape">
<use xlink:href="#path0_fill" transform="translate(946 269.362)" fill="#9B9B9B"/>
</g>
<g id="Shape">
<use xlink:href="#path1_fill" transform="translate(979.443 270.137)" fill="#9B9B9B"/>
</g>
<g id="Shape">
<use xlink:href="#path2_fill" transform="translate(1011.81 269.362)" fill="#9B9B9B"/>
</g>
<g id="Shape">
<use xlink:href="#path3_fill" transform="translate(1042.72 269.362)" fill="#9B9B9B"/>
</g>
<g id="Shape">
<use xlink:href="#path4_fill" transform="translate(1074.41 259)" fill="#9B9B9B"/>
</g>
</g>
</g>
</g>
</g>
</g>
<defs>
<path id="path0_fill" fill-rule="evenodd" d="M 30.1275 13.8487C 30.1275 22.0803 24.6675 27.6487 17.4525 27.6487C 14.235 27.6487 11.6025 26.6319 9.75 24.7435L 9.75 35.6382L 0 35.6382L 0 0.775047L 9.75 0.775047L 9.75 2.90557C 11.6025 1.06557 14.235 0.000310696 17.4525 0.000310696C 24.6675 -0.0481104 30.1275 5.56873 30.1275 13.8487ZM 20.3775 13.8487C 20.3775 10.5561 18.2813 8.03821 15.0638 8.03821C 12.09 8.03821 9.70125 10.5077 9.70125 13.8487C 9.70125 17.0929 12.09 19.5624 15.0638 19.5624C 18.33 19.5624 20.3775 17.0929 20.3775 13.8487Z"/>
<path id="path1_fill" fill-rule="evenodd" d="M 27.5438 26.0989L 17.7938 26.0989L 17.7938 23.4842C 15.7463 25.6632 13.065 26.8737 9.89625 26.8737C 3.94875 26.8737 1.06812e-06 22.8063 1.06812e-06 16.1726L 1.06812e-06 -3.26013e-07L 9.79875 -3.26013e-07L 9.79875 14.0905C 9.79875 16.56 11.2613 18.2063 13.5038 18.2063C 16.0875 18.2063 17.8425 16.2695 17.8425 12.6379L 17.8425 -3.26013e-07L 27.5925 -3.26013e-07L 27.5925 26.0989L 27.5438 26.0989Z"/>
<path id="path2_fill" fill-rule="evenodd" d="M 27.5925 10.6531L 27.5925 26.8257L 17.7937 26.8257L 17.7937 12.7352C 17.7937 10.2657 16.3313 8.61937 14.0888 8.61937C 11.505 8.61937 9.75 10.5078 9.75 14.1878L 9.75 26.8741L 0 26.8741L 0 0.775159L 9.75 0.775159L 9.75 3.3899C 11.7975 1.21095 14.4787 0.000422681 17.6475 0.000422681C 23.6437 -0.0479984 27.5925 4.06779 27.5925 10.6531Z"/>
<path id="path3_fill" fill-rule="evenodd" d="M 28.275 17.0442C 27.2025 23.4842 21.4012 27.6484 14.5762 27.6484C 6.63 27.6484 1.2207e-06 22.08 1.2207e-06 13.8484C 1.2207e-06 5.56842 6.63 6.95679e-08 14.5762 6.95679e-08C 21.3525 6.95679e-08 27.0075 4.06737 28.2263 10.4589L 19.2563 12.2989C 18.6713 9.53895 16.8675 8.18316 14.5762 8.18316C 11.4562 8.18316 9.36 10.7011 9.36 13.8484C 9.36 16.9958 11.4562 19.4653 14.5762 19.4653C 16.8675 19.4653 18.6713 18.0611 19.3538 15.3495L 28.275 17.0442Z"/>
<path id="path4_fill" fill-rule="evenodd" d="M 27.5925 21.0147L 27.5925 37.1874L 17.7937 37.1874L 17.7937 23.0968C 17.7937 20.6274 16.3312 18.9811 14.0887 18.9811C 11.505 18.9811 9.75 20.8695 9.75 24.5495L 9.75 37.2358L 1.2207e-06 37.2358L 1.2207e-06 0L 9.75 0L 9.75 13.7516C 11.7975 11.5726 14.4787 10.3621 17.6475 10.3621C 23.6437 10.3137 27.5925 14.4295 27.5925 21.0147Z"/>
</defs>
</svg>
