<svg width="159" height="40" viewBox="0 0 159 40" version="1.1" xmlns="http://www.w3.org/2000/svg" xmlns:xlink="http://www.w3.org/1999/xlink">
<title>ribose</title>
<desc>Created using Figma</desc>
<g id="Canvas" transform="translate(-1102 -265)">
<g id="ribose">
<g id="Page 1">
<g id="20160425 ribose cloudasia ida booth">
<g id="Group">
<g id="Clipped">
<g id="Group">
<g id="Logo">
<g id="Shape">
<use xlink:href="#path0_fill" transform="translate(1102 265)" fill="#9B9B9B"/>
</g>
<g id="Shape">
<use xlink:href="#path1_fill" transform="translate(1133.61 269.948)" fill="#9B9B9B"/>
</g>
<g id="Shape">
<use xlink:href="#path2_fill" transform="translate(1148.68 265)" fill="#9B9B9B"/>
</g>
<g id="Shape">
<use xlink:href="#path3_fill" transform="translate(1178.44 279.848)" fill="#9B9B9B"/>
</g>
<g id="Shape">
<use xlink:href="#path4_fill" transform="translate(1208.1 279.848)" fill="#9B9B9B"/>
</g>
<g id="Shape">
<use xlink:href="#path5_fill" transform="translate(1237.88 279.848)" fill="#9B9B9B"/>
</g>
</g>
</g>
</g>
</g>
</g>
</g>
</g>
</g>
<defs>
<path id="path0_fill" fill-rule="evenodd" d="M 10.0614 19.7966L 12.9354 19.7966L 14.3724 17.3234L 17.2475 17.3234L 18.6842 14.8481L 17.2475 12.3748L 18.6842 9.89948L 17.2475 7.4239L 14.3724 7.4239L 12.9354 4.94805L 10.0614 4.94805L 8.62333 7.4239L 5.74933 7.4239L 4.31206 9.89948L 5.74933 12.3748L 4.31206 14.8481L 5.74933 17.3234L 8.62333 17.3234L 10.0614 19.7966ZM 14.3724 2.47532L 17.2475 2.47532L 18.6842 4.94805L 21.5582 4.94805L 22.9965 7.4239L 21.5582 9.89948L 22.9965 12.3748L 21.5582 14.8481L 22.9965 17.3234L 21.5582 19.7966L 18.6842 19.7966L 17.2475 22.2719L 18.6842 24.7478L 21.5582 24.7478L 22.9965 27.2226L 21.5582 29.6984L 22.9965 32.1717L 21.5582 34.6449L 22.9965 37.12L 21.6136 39.5956L 18.7398 39.5956L 17.2475 37.12L 18.6842 34.6449L 17.2475 32.1717L 18.6842 29.6984L 17.2475 27.2226L 14.3724 27.2226L 12.9354 24.7478L 10.0614 24.7478L 8.62333 22.2719L 5.74933 22.2719L 4.31206 24.7478L 5.74933 27.2226L 4.31206 29.6984L 5.74933 32.1717L 4.31206 34.6449L 5.74933 37.12L 4.36689 39.5956L 1.49209 39.5956L 2.55033e-09 37.12L 1.437 34.6449L 2.55033e-09 32.1717L 1.437 29.6984L 2.55033e-09 27.2226L 1.437 24.7478L 2.55033e-09 22.2719L 1.437 19.7966L 2.55033e-09 17.3234L 1.437 14.8481L 2.55033e-09 12.3748L 1.437 9.89948L 2.55033e-09 7.4239L 1.437 4.94805L 4.31206 4.94805L 5.74933 2.47532L 8.62333 2.47532L 10.0614 2.53024e-09L 12.9354 2.53024e-09L 14.3724 2.47532Z"/>
<path id="path1_fill" fill-rule="evenodd" d="M 5.74932 12.3753L 4.31232 14.8486L 5.74932 17.3239L 4.31232 19.7997L 5.74932 22.2745L 4.31232 24.7504L 5.74932 27.2236L 4.31232 29.6969L 5.74932 32.172L 4.36793 34.6475L 1.49261 34.6475L -5.20752e-07 32.172L 1.437 29.6969L -5.20752e-07 27.2236L 1.437 24.7504L -5.20752e-07 22.2745L 1.437 19.7997L -5.20752e-07 17.3239L 1.437 14.8486L -5.20752e-07 12.3753L 1.437 9.9L 4.31232 9.9L 5.74932 12.3753ZM 5.74932 2.47584L 4.31232 4.95143L 1.437 4.95143L -5.20752e-07 2.47584L 1.437 2.90527e-09L 4.31232 2.90527e-09L 5.74932 2.47584Z"/>
<path id="path2_fill" fill-rule="evenodd" d="M 18.6842 29.6984L 17.2472 27.2226L 18.6842 24.7475L 17.2472 22.2717L 14.3721 22.2717L 12.9349 19.7966L 10.0609 19.7966L 8.6236 22.2717L 5.7488 22.2717L 4.31206 24.7475L 5.7488 27.2226L 4.31206 29.6984L 5.7488 32.1717L 8.6236 32.1717L 10.0609 34.6449L 12.9349 34.6449L 14.3721 32.1717L 17.2472 32.1717L 18.6842 29.6984ZM 5.7488 2.47532L 4.31206 4.94805L 5.7488 7.4239L 4.31206 9.89948L 5.7488 12.3745L 4.31206 14.8478L 5.7488 17.3234L 8.6236 17.3234L 10.0609 14.8478L 12.9349 14.8478L 14.3721 17.3234L 17.2472 17.3234L 18.6842 19.7966L 21.5582 19.7966L 22.996 22.2717L 21.5582 24.7475L 22.996 27.2226L 21.5582 29.6984L 22.996 32.1717L 21.5582 34.6449L 18.6842 34.6449L 17.2472 37.12L 14.3721 37.12L 12.9905 39.5953L 10.117 39.5953L 8.6236 37.12L 5.7488 37.12L 4.36715 39.5953L 1.49209 39.5953L -1.19419e-06 37.12L 1.43674 34.6449L -1.19419e-06 32.1717L 1.43674 29.6984L -1.19419e-06 27.2226L 1.43674 24.7475L -1.19419e-06 22.2717L 1.43674 19.7966L -1.19419e-06 17.3234L 1.43674 14.8478L -1.19419e-06 12.3745L 1.43674 9.89948L -1.19419e-06 7.4239L 1.43674 4.94805L -1.19419e-06 2.47532L 1.43674 2.53024e-09L 4.31206 2.53024e-09L 5.7488 2.47532Z"/>
<path id="path3_fill" fill-rule="evenodd" d="M 5.74932 12.3745L 4.31258 14.8504L 5.74932 17.3236L 8.62386 17.3236L 10.0614 19.7969L 12.9349 19.7969L 14.3724 17.3236L 17.248 17.3236L 18.6845 14.8504L 17.248 12.3745L 18.6845 9.89974L 17.248 7.42364L 14.3724 7.42364L 12.9349 4.94857L 10.0614 4.94857L 8.62386 7.42364L 5.74932 7.42364L 4.31258 9.89974L 5.74932 12.3745ZM 5.74932 2.47532L 8.62386 2.47532L 10.0614 -3.78564e-07L 12.9349 -3.78564e-07L 14.3724 2.47532L 17.248 2.47532L 18.6845 4.94857L 21.5593 4.94857L 22.995 7.42364L 21.5593 9.89974L 22.995 12.3745L 21.5593 14.8504L 22.995 17.3236L 21.5593 19.7969L 18.6845 19.7969L 17.248 22.2719L 14.3724 22.2719L 12.9907 24.7473L 10.1175 24.7473L 8.62386 22.2719L 5.74932 22.2719L 4.31258 19.7969L 1.43675 19.7969L 2.17051e-06 17.3236L 1.43675 14.8504L 2.17051e-06 12.3745L 1.43675 9.89974L 2.17051e-06 7.42364L 1.43675 4.94857L 4.31258 4.94857L 5.74932 2.47532Z"/>
<path id="path4_fill" fill-rule="evenodd" d="M 5.7488 2.47532L 8.62334 2.47532L 10.0619 -3.78564e-07L 12.9346 -3.78564e-07L 14.3721 2.47532L 17.2475 2.47532L 18.6842 4.94857L 21.5587 4.94857L 22.9955 7.4239L 21.5587 9.89974L 18.6842 9.89974L 17.2475 7.4239L 14.3721 7.4239L 12.9346 4.94857L 10.0619 4.94857L 8.62334 7.4239L 10.0619 9.89974L 12.9346 9.89974L 14.3721 12.3745L 17.2475 12.3745L 18.6842 14.8504L 21.5587 14.8504L 22.9955 17.3236L 21.5587 19.7969L 18.6842 19.7969L 17.2475 22.2719L 14.3721 22.2719L 12.9915 24.7475L 10.117 24.7475L 8.62334 22.2719L 5.7488 22.2719L 4.31232 19.7969L 1.43674 19.7969L -5.19531e-07 17.3236L 1.43674 14.8504L 4.31232 14.8504L 5.7488 17.3236L 8.62334 17.3236L 10.0619 19.7969L 12.9346 19.7969L 14.3721 17.3236L 12.9346 14.8504L 10.0619 14.8504L 8.62334 12.3745L 5.7488 12.3745L 4.31232 9.89974L 1.43674 9.89974L -5.19531e-07 7.4239L 1.43674 4.94857L 4.31232 4.94857L 5.7488 2.47532Z"/>
<path id="path5_fill" fill-rule="evenodd" d="M 5.7488 2.47532L 8.62359 2.47532L 10.0619 -3.78564e-07L 12.9354 -3.78564e-07L 14.3724 2.47532L 17.2474 2.47532L 18.6845 4.94857L 21.559 4.94857L 22.9957 7.4239L 21.559 9.89974L 18.6845 9.89974L 17.2474 12.3745L 14.3724 12.3745L 12.9354 14.8504L 10.0619 14.8504L 8.62359 12.3745L 10.0619 9.89974L 12.9354 9.89974L 14.3724 7.4239L 12.9354 4.94857L 10.0619 4.94857L 8.62359 7.4239L 5.7488 7.4239L 4.31205 9.89974L 5.7488 12.3745L 4.31205 14.8504L 5.7488 17.3236L 8.62359 17.3236L 10.0619 19.7969L 12.9354 19.7969L 14.3724 17.3236L 17.2474 17.3236L 18.6845 14.8504L 21.559 14.8504L 22.9957 17.3236L 21.559 19.7969L 18.6845 19.7969L 17.2474 22.2719L 14.3724 22.2719L 12.9905 24.7475L 10.117 24.7475L 8.62359 22.2719L 5.7488 22.2719L 4.31205 19.7969L 1.43778 19.7969L -5.4502e-06 17.3236L 1.43778 14.8504L -5.4502e-06 12.3745L 1.43778 9.89974L -5.4502e-06 7.4239L 1.43778 4.94857L 4.31205 4.94857L 5.7488 2.47532Z"/>
</defs>
</svg>
