<?xml version="1.0" encoding="UTF-8"?>
<svg width="159px" height="40px" viewBox="0 0 159 40" version="1.1" xmlns="http://www.w3.org/2000/svg" xmlns:xlink="http://www.w3.org/1999/xlink">
    <!-- Generator: Sketch 41.2 (35397) - http://www.bohemiancoding.com/sketch -->
    <title>ribose</title>
    <desc>Created with Sketch.</desc>
    <defs></defs>
    <g id="Page-1" stroke="none" stroke-width="1" fill="none" fill-rule="evenodd">
        <g id="20160425-ribose-cloudasia-ida-booth" fill="#030405">
            <g id="Group">
                <g id="Clipped">
                    <g id="Group">
                        <g id="Logo">
                            <path d="M10.1812217,19.9924675 L13.0552315,19.9924675 L14.4922365,17.5192208 L17.3672906,17.5192208 L18.8040345,15.0438961 L17.3672906,12.5706494 L18.8040345,10.0953247 L17.3672906,7.61974026 L14.4922365,7.61974026 L13.0552315,5.1438961 L10.1812217,5.1438961 L8.74317241,7.61974026 L5.86916256,7.61974026 L4.43189655,10.0953247 L5.86916256,12.5706494 L4.43189655,15.0438961 L5.86916256,17.5192208 L8.74317241,17.5192208 L10.1812217,19.9924675 Z M14.4922365,2.67116883 L17.3672906,2.67116883 L18.8040345,5.1438961 L21.6780443,5.1438961 L23.1163547,7.61974026 L21.6780443,10.0953247 L23.1163547,12.5706494 L21.6780443,15.0438961 L23.1163547,17.5192208 L21.6780443,19.9924675 L18.8040345,19.9924675 L17.3672906,22.4677922 L18.8040345,24.9436364 L21.6780443,24.9436364 L23.1163547,27.4184416 L21.6780443,29.8942857 L23.1163547,32.3675325 L21.6780443,34.8407792 L23.1163547,37.3158442 L21.7333941,39.7914286 L18.8596453,39.7914286 L17.3672906,37.3158442 L18.8040345,34.8407792 L17.3672906,32.3675325 L18.8040345,29.8942857 L17.3672906,27.4184416 L14.4922365,27.4184416 L13.0552315,24.9436364 L10.1812217,24.9436364 L8.74317241,22.4677922 L5.86916256,22.4677922 L4.43189655,24.9436364 L5.86916256,27.4184416 L4.43189655,29.8942857 L5.86916256,32.3675325 L4.43189655,34.8407792 L5.86916256,37.3158442 L4.48672414,39.7914286 L1.61193103,39.7914286 L0.119837438,37.3158442 L1.55684236,34.8407792 L0.119837438,32.3675325 L1.55684236,29.8942857 L0.119837438,27.4184416 L1.55684236,24.9436364 L0.119837438,22.4677922 L1.55684236,19.9924675 L0.119837438,17.5192208 L1.55684236,15.0438961 L0.119837438,12.5706494 L1.55684236,10.0953247 L0.119837438,7.61974026 L1.55684236,5.1438961 L4.43189655,5.1438961 L5.86916256,2.67116883 L8.74317241,2.67116883 L10.1812217,0.195844156 L13.0552315,0.195844156 L14.4922365,2.67116883 L14.4922365,2.67116883 Z" id="Shape"></path>
                            <path d="M37.4759606,17.5192208 L36.0389557,19.9924675 L37.4759606,22.4677922 L36.0389557,24.9436364 L37.4759606,27.4184416 L36.0389557,29.8942857 L37.4759606,32.3675325 L36.0389557,34.8407792 L37.4759606,37.3158442 L36.0945665,39.7914286 L33.2192512,39.7914286 L31.7266355,37.3158442 L33.1636404,34.8407792 L31.7266355,32.3675325 L33.1636404,29.8942857 L31.7266355,27.4184416 L33.1636404,24.9436364 L31.7266355,22.4677922 L33.1636404,19.9924675 L31.7266355,17.5192208 L33.1636404,15.0438961 L36.0389557,15.0438961 L37.4759606,17.5192208 Z M37.4759606,7.61974026 L36.0389557,10.0953247 L33.1636404,10.0953247 L31.7266355,7.61974026 L33.1636404,5.1438961 L36.0389557,5.1438961 L37.4759606,7.61974026 Z" id="Shape"></path>
                            <path d="M65.479803,29.8942857 L64.042798,27.4184416 L65.479803,24.9433766 L64.042798,22.4675325 L61.1677438,22.4675325 L59.7304778,19.9924675 L56.856468,19.9924675 L55.419202,22.4675325 L52.5444089,22.4675325 L51.107665,24.9433766 L52.5444089,27.4184416 L51.107665,29.8942857 L52.5444089,32.3675325 L55.419202,32.3675325 L56.856468,34.8407792 L59.7304778,34.8407792 L61.1677438,32.3675325 L64.042798,32.3675325 L65.479803,29.8942857 Z M52.5444089,2.67116883 L51.107665,5.1438961 L52.5444089,7.61974026 L51.107665,10.0953247 L52.5444089,12.5703896 L51.107665,15.0436364 L52.5444089,17.5192208 L55.419202,17.5192208 L56.856468,15.0436364 L59.7304778,15.0436364 L61.1677438,17.5192208 L64.042798,17.5192208 L65.479803,19.9924675 L68.3538128,19.9924675 L69.791601,22.4675325 L68.3538128,24.9433766 L69.791601,27.4184416 L68.3538128,29.8942857 L69.791601,32.3675325 L68.3538128,34.8407792 L65.479803,34.8407792 L64.042798,37.3158442 L61.1677438,37.3158442 L59.7860887,39.7911688 L56.912601,39.7911688 L55.419202,37.3158442 L52.5444089,37.3158442 L51.1627537,39.7911688 L48.2876995,39.7911688 L46.7956059,37.3158442 L48.2323498,34.8407792 L46.7956059,32.3675325 L48.2323498,29.8942857 L46.7956059,27.4184416 L48.2323498,24.9433766 L46.7956059,22.4675325 L48.2323498,19.9924675 L46.7956059,17.5192208 L48.2323498,15.0436364 L46.7956059,12.5703896 L48.2323498,10.0953247 L46.7956059,7.61974026 L48.2323498,5.1438961 L46.7956059,2.67116883 L48.2323498,0.195844156 L51.107665,0.195844156 L52.5444089,2.67116883 L52.5444089,2.67116883 Z" id="Shape"></path>
                            <path d="M82.3066502,27.4184416 L80.8699064,29.8942857 L82.3066502,32.3675325 L85.1811823,32.3675325 L86.6187094,34.8407792 L89.492197,34.8407792 L90.9297241,32.3675325 L93.8053005,32.3675325 L95.2417833,29.8942857 L93.8053005,27.4184416 L95.2417833,24.9436364 L93.8053005,22.4675325 L90.9297241,22.4675325 L89.492197,19.9924675 L86.6187094,19.9924675 L85.1811823,22.4675325 L82.3066502,22.4675325 L80.8699064,24.9436364 L82.3066502,27.4184416 Z M82.3066502,17.5192208 L85.1811823,17.5192208 L86.6187094,15.0438961 L89.492197,15.0438961 L90.9297241,17.5192208 L93.8053005,17.5192208 L95.2417833,19.9924675 L98.1165764,19.9924675 L99.5522759,22.4675325 L98.1165764,24.9436364 L99.5522759,27.4184416 L98.1165764,29.8942857 L99.5522759,32.3675325 L98.1165764,34.8407792 L95.2417833,34.8407792 L93.8053005,37.3158442 L90.9297241,37.3158442 L89.548069,39.7911688 L86.6748424,39.7911688 L85.1811823,37.3158442 L82.3066502,37.3158442 L80.8699064,34.8407792 L77.994069,34.8407792 L76.5573251,32.3675325 L77.994069,29.8942857 L76.5573251,27.4184416 L77.994069,24.9436364 L76.5573251,22.4675325 L77.994069,19.9924675 L80.8699064,19.9924675 L82.3066502,17.5192208 L82.3066502,17.5192208 Z" id="Shape"></path>
                            <polygon id="Shape" points="111.973596 17.5192208 114.848128 17.5192208 116.2867 15.0438961 119.159404 15.0438961 120.596931 17.5192208 123.472246 17.5192208 124.90899 19.9924675 127.783522 19.9924675 129.220266 22.4677922 127.783522 24.9436364 124.90899 24.9436364 123.472246 22.4677922 120.596931 22.4677922 119.159404 19.9924675 116.2867 19.9924675 114.848128 22.4677922 116.2867 24.9436364 119.159404 24.9436364 120.596931 27.4184416 123.472246 27.4184416 124.90899 29.8942857 127.783522 29.8942857 129.220266 32.3675325 127.783522 34.8407792 124.90899 34.8407792 123.472246 37.3158442 120.596931 37.3158442 119.21632 39.7914286 116.341788 39.7914286 114.848128 37.3158442 111.973596 37.3158442 110.537113 34.8407792 107.661537 34.8407792 106.224793 32.3675325 107.661537 29.8942857 110.537113 29.8942857 111.973596 32.3675325 114.848128 32.3675325 116.2867 34.8407792 119.159404 34.8407792 120.596931 32.3675325 119.159404 29.8942857 116.2867 29.8942857 114.848128 27.4184416 111.973596 27.4184416 110.537113 24.9436364 107.661537 24.9436364 106.224793 22.4677922 107.661537 19.9924675 110.537113 19.9924675"></polygon>
                            <polygon id="Shape" points="141.750197 17.5192208 144.62499 17.5192208 146.0633 15.0438961 148.936788 15.0438961 150.373793 17.5192208 153.248847 17.5192208 154.685852 19.9924675 157.560384 19.9924675 158.997128 22.4677922 157.560384 24.9436364 154.685852 24.9436364 153.248847 27.4184416 150.373793 27.4184416 148.936788 29.8942857 146.0633 29.8942857 144.62499 27.4184416 146.0633 24.9436364 148.936788 24.9436364 150.373793 22.4677922 148.936788 19.9924675 146.0633 19.9924675 144.62499 22.4677922 141.750197 22.4677922 140.313453 24.9436364 141.750197 27.4184416 140.313453 29.8942857 141.750197 32.3675325 144.62499 32.3675325 146.0633 34.8407792 148.936788 34.8407792 150.373793 32.3675325 153.248847 32.3675325 154.685852 29.8942857 157.560384 29.8942857 158.997128 32.3675325 157.560384 34.8407792 154.685852 34.8407792 153.248847 37.3158442 150.373793 37.3158442 148.991877 39.7914286 146.118389 39.7914286 144.62499 37.3158442 141.750197 37.3158442 140.313453 34.8407792 137.439182 34.8407792 136.001394 32.3675325 137.439182 29.8942857 136.001394 27.4184416 137.439182 24.9436364 136.001394 22.4677922 137.439182 19.9924675 140.313453 19.9924675"></polygon>
                        </g>
                    </g>
                </g>
            </g>
        </g>
    </g>
</svg>