<?xml version="1.0" encoding="UTF-8"?>
<svg width="258px" height="49px" viewBox="0 0 258 49" version="1.1" xmlns="http://www.w3.org/2000/svg" xmlns:xlink="http://www.w3.org/1999/xlink">
    <!-- Generator: Sketch 41.2 (35397) - http://www.bohemiancoding.com/sketch -->
    <title>seatgeek</title>
    <desc>Created with Sketch.</desc>
    <defs></defs>
    <g id="Page-1" stroke="none" stroke-width="1" fill="none" fill-rule="evenodd">
        <g id="SeatGeek_Blue" fill="#1673E6">
            <g id="Layer_1">
                <g id="Group">
                    <g transform="translate(76.555505, 8.811404)">
                        <path d="M35.1981826,7.58640351 C28.1715584,7.58640351 24.2028169,13.3030702 24.2028169,19.4710526 C24.2028169,22.2219298 24.810056,31.3342105 36.6512191,31.3342105 C40.1428441,31.3342105 42.5067393,30.4100877 44.2417083,29.4644737 L44.2417083,24.3065789 C44.2417083,24.3065789 41.4006966,26.5201754 37.2584582,26.5201754 C32.6391034,26.5201754 30.3619567,23.9412281 29.9932758,21.1473684 L45.3694381,21.1473684 L45.3694381,18.2245614 C45.3694381,16.5052632 45.4128123,7.58640351 35.1981826,7.58640351 Z M30.0149629,16.6127193 C30.3402695,14.6140351 31.8583674,12.3574561 35.458428,12.3574561 C38.5379978,12.3574561 39.7091019,14.4421053 39.9693472,16.6127193 L30.0149629,16.6127193 Z" id="XMLID_30_"></path>
                        <path d="M65.7336362,16.0754386 C65.7336362,7.95175439 59.8564288,7.56491228 56.9286687,7.56491228 C52.526185,7.56491228 48.644192,9.43464912 48.644192,9.43464912 L48.644192,14.5710526 C48.644192,14.5710526 52.1141299,12.3359649 55.5190065,12.3359649 C59.8998031,12.3359649 60.0733,14.6355263 60.0733,17.3219298 C52.1141299,17.0210526 47.2345297,18.6328947 47.2345297,24.5 C47.2345297,30.345614 53.2635468,31.3342105 57.752779,31.3342105 C61.1793427,31.3342105 65.7770104,30.4960526 65.7770104,30.4960526 C65.7770104,30.4960526 65.7336362,23.5328947 65.7336362,16.0754386 Z M59.9865515,26.6061404 C59.9865515,26.6061404 52.9599273,27.9600877 52.9599273,24.0486842 C52.9599273,20.7390351 58.2082083,21.1688596 59.9865515,21.2763158 L59.9865515,26.6061404 Z" id="XMLID_25_"></path>
                        <path d="M78.0302286,26.5631579 C75.4060881,26.5631579 74.7121005,25.1877193 74.7121005,23.1245614 L74.7121005,12.8517544 L81.1314856,12.8517544 L81.1314856,8.05921053 L74.7121005,8.05921053 L74.7121005,2.49298246 L68.9650158,2.49298246 L68.9650158,22.329386 C68.9650158,25.7035088 68.6613963,31.3557018 76.5338179,31.3557018 C80.2206269,31.3557018 81.9989701,30.2596491 81.9989701,30.2596491 L82.0206572,25.3381579 C82.0423443,25.3381579 79.8736331,26.5631579 78.0302286,26.5631579 Z" id="XMLID_23_"></path>
                        <path d="M20.2340754,7.67236842 L20.2340754,1.89122807 C20.2340754,1.89122807 16.7858246,0.0214912281 11.1905497,0.0214912281 C5.59527487,0.0214912281 0.0867484476,2.51447368 0.0867484476,8.78991228 C0.0867484476,13.947807 3.6434348,15.7530702 6.59288202,16.8061404 C9.56401635,17.8592105 12.2532182,18.847807 13.6845676,19.6 C15.115917,20.352193 16.0050886,21.104386 16.0050886,22.8451754 C16.0050886,24.5644737 15.0074814,26.2837719 10.1495684,26.2837719 C5.2916553,26.2837719 0.45542935,23.1030702 0.45542935,23.1030702 L0.45542935,28.927193 C0.45542935,28.927193 4.22898682,31.377193 10.1495684,31.377193 C16.0701499,31.377193 21.9907315,29.1635965 21.9907315,22.3938596 C21.9907315,16.6557018 16.7641375,14.5925439 15.2460397,13.9692982 C13.9881872,13.3890351 9.30377101,11.8201754 8.45797364,11.3903509 C7.24349537,10.7671053 5.89889444,10.079386 6.02901711,8.20964912 C6.15913978,6.46885965 7.48205361,5.07192982 10.9086173,5.07192982 C15.8315917,5.07192982 20.2340754,7.67236842 20.2340754,7.67236842 Z" id="XMLID_22_"></path>
                        <g id="XMLID_17_" transform="translate(159.617144, 0.429825)">
                            <polygon id="XMLID_20_" points="5.76877177 30.4100877 5.76877177 0 0.0216871119 0 0.0216871119 30.4100877"></polygon>
                            <polygon id="XMLID_19_" points="14.3134939 30.4100877 5.18321974 18.095614 14.1183098 7.67236842 20.8196274 7.67236842 11.6893533 18.095614 21.0364985 30.4100877"></polygon>
                        </g>
                        <path d="M122.705679,7.58640351 C115.679055,7.58640351 111.710313,13.3030702 111.710313,19.4710526 C111.710313,22.2219298 112.317553,31.3342105 124.158716,31.3342105 C127.650341,31.3342105 130.014236,30.4100877 131.749205,29.4644737 L131.749205,24.3065789 C131.749205,24.3065789 128.908193,26.5201754 124.765955,26.5201754 C120.1466,26.5201754 117.869453,23.9412281 117.500772,21.1473684 L132.876935,21.1473684 L132.876935,18.2245614 C132.876935,16.5052632 132.920309,7.58640351 122.705679,7.58640351 Z M117.522459,16.6127193 C117.847766,14.6140351 119.365864,12.3574561 122.965924,12.3574561 C126.045494,12.3574561 127.216598,14.4421053 127.476844,16.6127193 L117.522459,16.6127193 Z" id="XMLID_5_"></path>
                        <path d="M146.43138,7.58640351 C139.404755,7.58640351 135.436014,13.3030702 135.436014,19.4710526 C135.436014,22.2219298 136.043253,31.3342105 147.884416,31.3342105 C151.376041,31.3342105 153.739936,30.4100877 155.474905,29.4644737 L155.474905,24.3065789 C155.474905,24.3065789 152.633894,26.5201754 148.491655,26.5201754 C143.8723,26.5201754 141.595154,23.9412281 141.226473,21.1473684 L156.580948,21.1473684 L156.580948,18.2245614 C156.580948,16.5052632 156.624322,7.58640351 146.43138,7.58640351 Z M141.226473,16.6127193 C141.551779,14.6140351 143.069877,12.3574561 146.669938,12.3574561 C149.749508,12.3574561 150.920612,14.4421053 151.180857,16.6127193 L141.226473,16.6127193 Z" id="XMLID_2_"></path>
                        <path d="M107.893382,7.67236842 L107.893382,1.89122807 C107.893382,1.89122807 105.008996,0.0214912281 98.9799787,0.0214912281 C90.9557473,0.0214912281 83.4086324,5.78114035 83.4086324,15.9679825 C83.4086324,25.725 89.6545206,31.3557018 99.0884143,31.3557018 C105.594548,31.3557018 108.609056,29.5074561 108.609056,29.5074561 L108.609056,16.9565789 C108.609056,15.4307018 107.351204,14.1842105 105.811419,14.1842105 L96.6594577,14.1842105 L96.6594577,19.2561404 L102.861972,19.2561404 L102.861972,25.7679825 C102.861972,25.7679825 101.3005,26.3052632 98.9149174,26.3052632 C92.647342,26.3052632 89.3942753,21.5127193 89.3942753,16.0109649 C89.3942753,10.1653509 93.1027714,5.11491228 99.1101014,5.11491228 C103.40415,5.07192982 105.529487,6.23245614 107.893382,7.67236842 Z" id="XMLID_1_"></path>
                    </g>
                    <g>
                        <path d="M11.233924,5.28684211 C11.233924,5.28684211 19.3665909,0 32.5306679,0 C45.6947448,0 53.8274117,5.28684211 53.8274117,5.28684211 L48.4923822,33.3114035 L16.5472664,33.3114035 L11.233924,5.28684211 Z" id="XMLID_36_"></path>
                        <path d="M11.233924,39.5008772 C11.233924,39.5008772 19.5184007,43.2618421 32.5306679,43.2618421 C45.542935,43.2618421 53.8274117,39.5008772 53.8274117,39.5008772 L53.8274117,45.4754386 C53.8274117,45.4754386 45.3911252,49 32.5306679,49 C19.6702105,49 11.233924,45.4754386 11.233924,45.4754386 L11.233924,39.5008772 Z" id="XMLID_35_"></path>
                        <path d="M10.7568075,35.6324561 L10.7568075,25.6605263 C10.7568075,24.0486842 9.43389368,22.7377193 7.80736028,22.7377193 L0.10843556,22.7377193 L0.10843556,28.0245614 L5.07478418,28.0245614 L5.07478418,35.6539474 L10.7568075,35.6539474 L10.7568075,35.6324561 Z" id="XMLID_34_"></path>
                        <path d="M54.3045282,35.6324561 L54.3045282,25.6605263 C54.3045282,24.0486842 55.627442,22.7377193 57.2539754,22.7377193 L64.9529001,22.7377193 L64.9529001,28.0245614 L59.9865515,28.0245614 L59.9865515,35.6539474 L54.3045282,35.6539474 L54.3045282,35.6324561 Z" id="XMLID_33_"></path>
                    </g>
                </g>
            </g>
        </g>
    </g>
</svg>