<svg width="222" height="51" viewBox="0 0 222 51" version="1.1" xmlns="http://www.w3.org/2000/svg" xmlns:xlink="http://www.w3.org/1999/xlink">
<title>swiftype</title>
<desc>Created using Figma</desc>
<g id="Canvas" transform="translate(-1519 -254)">
<g id="swiftype">
<g id="Page 1">
<g id="logotype d03e170eeba0c51010eb4ac25fbf5479">
<g id="Group">
<g id="Shape">
<use xlink:href="#path0_fill" transform="translate(1570.88 254.934)" fill="#9B9B9B"/>
</g>
<g id="Shape">
<use xlink:href="#path1_fill" transform="translate(1519 254)" fill="#9B9B9B"/>
</g>
</g>
</g>
</g>
</g>
</g>
<defs>
<path id="path0_fill" fill-rule="evenodd" d="M 157.649 29.5984C 158.449 30.2657 159.784 30.6661 161.25 30.6661C 161.917 30.6661 162.584 30.6661 163.252 30.5327L 165.252 30.134C 165.919 29.9988 166.586 29.7319 167.119 29.5984C 167.52 29.4649 167.919 29.3332 168.185 29.1997C 168.32 29.1997 168.32 29.1997 168.32 29.3332L 169.52 33.1985C 169.52 33.332 169.52 33.332 169.387 33.4655C 168.852 33.7324 168.32 33.9993 167.653 34.2663C 166.814 34.5518 165.969 34.8182 165.119 35.0653C 164.318 35.3323 163.385 35.4657 162.451 35.5992C 161.518 35.7327 160.584 35.7327 159.516 35.7327C 157.649 35.7327 156.048 35.4657 154.582 35.0653C 153.248 34.6667 152.048 33.9993 151.246 33.1985C 150.312 32.3995 149.647 31.1983 149.246 29.8653C 148.846 28.5324 148.58 26.7991 148.58 24.7988C 148.58 22.6668 148.846 20.7983 149.381 19.2001C 149.913 17.5985 150.713 16.2656 151.78 15.3331C 152.805 14.2942 154.032 13.4772 155.384 12.9324C 156.85 12.3985 158.451 12.1316 160.318 12.1316C 161.919 12.1316 163.253 12.3985 164.453 12.7989C 165.52 13.3328 166.453 13.9984 167.12 14.7992C 167.837 15.8123 168.378 16.9391 168.721 18.1324C 169.12 19.4671 169.255 21.0652 169.255 22.7985L 169.255 24.3984C 169.255 24.6653 169.255 25.0657 169.12 25.3327L 169.12 25.5996C 169.12 25.7331 168.987 25.7331 168.987 25.7331L 156.183 25.7331C 156.05 25.7331 156.05 25.8665 156.05 25.8665L 156.05 26.2652C 156.318 27.7316 156.85 28.9328 157.651 29.5984L 157.649 29.5984ZM 156.316 22.1329L 163.252 22.1329C 163.385 22.1329 163.385 21.9995 163.385 21.9995L 163.385 21.4656C 163.385 19.9992 163.117 18.9332 162.584 18.1324C 162.05 17.3316 161.25 16.9329 160.183 16.9329C 158.85 16.9329 157.915 17.3316 157.25 18.1324C 156.582 18.9332 156.181 19.9992 156.181 21.5991L 156.181 21.9977C 156.181 21.9977 156.181 22.1329 156.316 22.1329ZM 146.179 29.1997C 145.778 30.1323 145.379 30.9331 144.711 31.5987C 144.179 32.266 143.379 32.9333 142.578 33.4655C 141.778 33.9993 140.711 34.3997 139.643 34.6649C 138.328 34.9435 136.987 35.0777 135.643 35.0653L 132.441 35.0653C 132.308 35.0653 132.308 35.0653 132.308 35.1988L 132.308 44.7997C 132.308 44.9332 132.175 44.9332 132.175 44.9332L 125.105 45.3319C 124.972 45.3319 124.972 45.3319 124.972 45.1984L 124.972 12.6655C 124.972 12.532 124.972 12.532 125.105 12.532L 131.242 12.2651C 131.375 12.2651 131.375 12.2651 131.375 12.3985L 131.375 12.532C 131.375 12.6655 131.508 12.9324 131.508 13.0659C 131.508 13.1993 131.641 13.4645 131.641 13.5997L 131.641 13.8649C 131.641 13.9984 131.774 14.2653 131.774 14.5323L 131.907 15.3331C 131.907 15.4665 132.04 15.4665 132.04 15.3331L 132.576 14.7992C 133.641 13.8649 134.574 13.0659 135.774 12.6672C 136.925 12.2288 138.146 12.0027 139.377 11.9999C 140.576 11.9999 141.645 12.2651 142.578 12.6655C 143.512 13.0641 144.312 13.7332 144.978 14.5323C 145.645 15.4665 146.179 16.5325 146.578 17.9989C 146.979 19.4653 147.246 21.1987 147.246 23.1989C 147.246 24.2649 147.113 25.3309 146.979 26.3987C 146.837 27.3637 146.568 28.3056 146.179 29.1997ZM 139.51 21.0652C 139.377 20.2661 139.111 19.5988 138.709 19.0649C 138.31 18.5328 137.909 18.1324 137.377 17.8655C 136.882 17.6088 136.333 17.4722 135.776 17.4668C 135.109 17.4668 134.574 17.5985 133.909 17.8655C 133.375 18.1324 132.841 18.3993 132.308 18.7997L 132.175 18.9332C 132.175 18.9332 132.04 19.0649 132.04 19.1984L 132.04 30.1323C 132.04 30.2657 132.04 30.2657 132.175 30.2657L 132.441 30.2657C 132.574 30.2657 132.841 30.3992 133.109 30.3992C 133.375 30.3992 133.508 30.5327 133.774 30.5327C 134.042 30.5327 134.31 30.5327 134.441 30.6661L 135.109 30.6661C 135.909 30.6661 136.576 30.5327 137.109 30.2657C 137.776 29.9988 138.177 29.5984 138.576 28.9311C 138.976 28.3989 139.244 27.5999 139.377 26.7991C 139.55 25.7855 139.639 24.7593 139.643 23.7311C 139.776 22.7985 139.776 21.866 139.51 21.0652ZM 112.568 40.1319C 112.167 41.1996 111.635 41.9987 111.101 42.7995C 110.568 43.4651 109.901 44.1324 109.101 44.6663C 108.3 45.1984 107.367 45.4653 106.165 45.7323C 105.232 45.9992 104.032 46.1309 102.832 46.2661C 102.698 46.2661 102.698 46.2661 102.698 46.1327C 102.698 45.8657 102.564 45.5988 102.564 45.3319C 102.431 44.9332 102.431 44.6663 102.298 44.5328L 102.032 43.1981C 102.032 42.9329 101.897 42.666 101.764 42.2656C 101.764 41.9987 101.631 41.7317 101.631 41.4665C 101.631 41.3331 101.631 41.3331 101.764 41.3331C 102.564 41.1996 103.099 41.0661 103.631 40.9327C 104.279 40.7915 104.907 40.5672 105.498 40.2653C 106.034 39.9984 106.432 39.7332 106.699 39.3328C 106.966 38.9324 107.234 38.532 107.367 38.1316L 108.3 35.7327L 108.3 35.4657L 100.43 12.7989C 100.43 12.6655 100.43 12.6655 100.563 12.6655L 107.5 12.6655C 107.633 12.6655 107.633 12.7989 107.633 12.7989L 112.034 26.9325C 112.034 27.066 112.167 27.066 112.167 26.9325L 116.835 12.7989C 116.835 12.6655 116.97 12.6655 117.103 12.6655L 122.972 12.6655C 123.105 12.6655 123.105 12.6655 123.105 12.7989L 112.568 40.1336L 112.568 40.1319ZM 96.4293 35.1988C 95.0965 35.4657 93.6289 35.5975 91.7619 35.5975C 90.6936 35.5975 89.7601 35.4657 88.8266 35.3323C 88.0262 35.0653 87.3607 34.7984 86.8265 34.2663C 86.2924 33.8659 85.893 33.1985 85.6268 32.5329C 85.3589 31.7321 85.2258 30.7996 85.2258 29.7319L 85.2258 17.7337C 85.2258 17.6003 85.0927 17.6003 85.0927 17.6003L 82.6915 17.3333C 82.5584 17.3333 82.5584 17.2016 82.5584 17.2016L 82.9577 12.9324C 82.9577 12.7989 83.0926 12.7989 83.0926 12.7989L 85.3589 12.7989C 85.492 12.7989 85.492 12.6655 85.492 12.6655L 86.2924 5.99907C 86.2924 5.8656 86.4255 5.8656 86.4255 5.8656L 92.4275 5.33173C 92.5623 5.33173 92.5623 5.33173 92.5623 5.4652L 92.5623 12.7989C 92.5623 12.9324 92.6954 12.9324 92.6954 12.9324L 98.5643 12.9324C 98.6974 12.9324 98.6974 13.0659 98.6974 13.0659L 98.2963 17.4651C 98.2963 17.5985 98.1632 17.5985 98.1632 17.5985L 92.8285 17.5985C 92.6954 17.5985 92.6954 17.5985 92.6954 17.732L 92.6954 29.4667C 92.6954 29.8653 92.8285 30.1323 93.0947 30.3992C 93.3627 30.5327 93.6289 30.6661 94.0282 30.6661L 94.9617 30.6661C 95.3627 30.6661 95.7621 30.5327 96.1631 30.5327C 96.5625 30.5327 96.9635 30.3992 97.3628 30.2657C 97.4959 30.2657 97.6308 30.2657 97.7639 30.1323C 97.897 30.1323 97.897 30.1323 97.897 30.2657L 98.9636 34.2663C 98.9636 34.3997 98.9636 34.3997 98.8305 34.5332C 98.2963 34.6649 97.4959 34.9319 96.4293 35.1988ZM 80.5583 5.19827C 79.49 4.93307 78.5565 4.93307 77.7579 4.93307C 77.4899 4.93307 77.222 4.93307 77.0906 5.06653C 76.8226 5.19827 76.6895 5.33173 76.5564 5.4652C 76.3897 5.64776 76.295 5.88502 76.2902 6.13253L 76.2902 12.532C 76.2902 12.6655 76.4233 12.6655 76.4233 12.6655L 80.8245 12.6655C 80.9576 12.6655 80.9576 12.7989 80.9576 12.7989L 80.5583 17.1999C 80.5583 17.3316 80.4252 17.3316 80.4252 17.3316L 76.4233 17.3316C 76.2902 17.3316 76.2902 17.3316 76.2902 17.4651L 76.2902 34.9319C 76.2902 35.0653 76.1571 35.0653 76.1571 35.0653L 69.2216 35.0653C 69.0868 35.0653 69.0868 34.9319 69.0868 34.9319L 69.0868 17.4651C 69.0868 17.3316 68.9537 17.3316 68.9537 17.3316L 66.5525 17.1999C 66.4194 17.1999 66.4194 17.0664 66.4194 17.0664L 66.8205 12.7989C 66.8205 12.6655 66.9536 12.6655 66.9536 12.6655L 68.9537 12.6655C 69.0868 12.6655 69.0868 12.532 69.0868 12.532L 69.0868 7.46547C 69.0868 6.1308 69.2216 4.93307 69.4878 3.9988C 69.7541 3.06627 70.1551 2.26547 70.6875 1.7316C 71.2217 1.19947 71.889 0.6656 72.8225 0.398667C 73.756 0.131733 74.8225 1.94395e-08 76.2902 1.94395e-08C 76.8226 1.94395e-08 77.3568 -1.49012e-08 77.891 0.131733C 78.4234 0.131733 78.9576 0.2652 79.49 0.2652C 80.0259 0.398667 80.5583 0.398667 81.0908 0.532133C 81.3587 0.532133 81.4918 0.6656 81.758 0.6656C 81.8911 0.6656 81.8911 0.799067 81.8911 0.799067L 81.0908 5.06653C 80.6914 5.19827 80.6914 5.19827 80.5583 5.19827ZM 63.0848 35.1988L 56.1493 35.1988C 56.0162 35.1988 56.0162 35.0653 56.0162 35.0653L 56.0162 12.9324C 56.0162 12.7989 56.1493 12.7989 56.1493 12.7989L 63.0848 12.532C 63.2196 12.532 63.2196 12.532 63.2196 12.6655L 63.2196 35.0671C 63.3527 35.0671 63.2196 35.2005 63.0848 35.2005L 63.0848 35.1988ZM 62.9517 8.26627L 56.2842 8.26627C 56.1493 8.26627 56.1493 8.1328 56.1493 8.1328L 56.1493 2.5324C 56.1493 2.39893 56.2842 2.39893 56.2842 2.39893L 62.9517 2.39893C 63.0848 2.39893 63.0848 2.5324 63.0848 2.5324L 63.0848 8.13107C 63.0848 8.26627 63.0848 8.26627 62.9517 8.26627ZM 47.0824 34.9319C 47.0824 35.0653 46.9493 35.0653 46.9493 35.0653L 40.8125 35.0653C 40.6793 35.0653 40.6794 34.9319 40.6794 34.9319C 40.28 33.4655 37.4796 22.3999 37.0785 20.9317C 37.0785 20.7983 37.0785 20.7983 36.9454 20.9317L 32.01 34.9319C 32.01 35.0653 31.8769 35.0653 31.7438 35.0653L 26.4073 35.0653C 26.2742 35.0653 26.2742 34.9319 26.2742 34.9319L 20.2705 12.6655C 20.2705 12.532 20.2705 12.532 20.4036 12.532L 26.8049 12.532C 26.9381 12.532 26.9381 12.6655 26.9381 12.6655C 27.206 14.0001 29.6071 24.9323 29.8734 26.2652C 29.8734 26.3987 29.8734 26.3987 30.0065 26.2652L 34.5408 12.7989C 34.5408 12.6655 34.6739 12.6655 34.8087 12.6655L 40.1435 12.3985C 40.2766 12.3985 40.2766 12.3985 40.2766 12.532C 40.5428 13.8667 43.2101 24.7988 43.4781 26.2652C 43.4781 26.3987 43.4781 26.3987 43.6112 26.2652L 47.8793 12.532C 47.8793 12.3985 48.0124 12.3985 48.0124 12.3985L 53.8813 12.3985C 54.0144 12.3985 54.0144 12.532 54.0144 12.532L 47.0789 34.9319L 47.0824 34.9319ZM 16.139 33.4655C 15.3386 34.1328 14.272 34.6649 13.0706 35.0653C 11.8709 35.4657 10.4032 35.5992 8.80245 35.5992C 7.20342 35.5992 5.46955 35.4657 4.0019 35.2005C 2.69178 34.9241 1.39977 34.5675 0.13311 34.1328C 1.2964e-06 34.1328 -2.57129e-07 33.9993 -2.57129e-07 33.8659L 1.0666 29.1997C 1.0666 29.0663 1.20143 29.0663 1.20143 29.0663C 1.60076 29.1997 2.13492 29.4649 2.66736 29.5984C 3.46774 29.8653 4.26812 29.9988 5.07022 30.1323C 5.86888 30.2657 6.53615 30.3992 7.3348 30.5309C 8.00207 30.6661 8.66934 30.6661 9.33661 30.6661C 10.137 30.6661 10.8043 30.5327 11.3367 30.2657C 12.004 29.8671 12.1371 29.3332 12.1371 28.9311C 12.1371 28.6659 12.1371 28.5324 12.004 28.2655C 11.8709 27.9985 11.7378 27.8668 11.6046 27.5999C 11.4715 27.4664 11.2036 27.1995 10.8043 27.066C 10.4184 26.8925 10.0158 26.7589 9.60283 26.6673C 8.27002 26.3987 7.20342 25.9983 6.2682 25.7313C 5.42526 25.483 4.61854 25.1246 3.86879 24.6653C 3.20152 24.2667 2.66736 23.8663 2.40114 23.5993C 2.04933 23.2331 1.73649 22.8311 1.46765 22.3999C 1.21375 22.0006 1.07495 21.5387 1.0666 21.0652C 0.933488 20.5331 0.933487 19.9992 0.933487 19.4653C 0.933487 18.6663 1.0666 17.8655 1.20143 17.1999C 1.46765 16.5325 1.73387 15.8652 2.13492 15.3331C 2.53425 14.7992 2.9353 14.2653 3.46774 13.8649C 4.0019 13.4663 4.66917 13.0659 5.33471 12.7989C 6.00198 12.532 6.66925 12.2651 7.46963 12.1316C 8.27001 11.9999 9.0704 11.8664 9.87078 11.8664C 10.5363 11.8664 11.3367 11.8664 12.004 11.9999C 12.6712 11.9999 13.4716 12.1316 14.1389 12.2651C 14.8044 12.3985 15.6048 12.532 16.4052 12.7989C 16.9394 12.9324 17.6066 13.1976 18.1391 13.4663C 18.2722 13.4663 18.2722 13.5997 18.2722 13.7332L 16.8063 18.2659C 16.8063 18.3993 16.6731 18.3993 16.6731 18.3993C 16.4052 18.2659 16.0059 18.1324 15.6048 18.0007C 15.0724 17.8655 14.4051 17.732 13.8709 17.5985L 13.6047 17.5985C 13.0706 17.4651 12.405 17.3316 11.8709 17.3316C 11.3367 17.1999 10.8043 17.1999 10.4032 17.1999C 9.60283 17.1999 9.07039 17.3316 8.53623 17.5985C 8.13691 17.8655 7.86896 18.3993 7.86896 18.9332C 7.86896 19.1984 7.86896 19.4653 8.00207 19.7323C 8.15284 20.0167 8.3853 20.2492 8.66934 20.3996C 8.93729 20.5331 9.33661 20.7983 9.87078 20.9317C 10.4032 21.0652 10.9374 21.3321 11.7378 21.4656C 13.0706 21.8643 14.272 22.2664 15.2055 22.6651C 16.139 23.0655 16.8062 23.5993 17.3387 24.1332C 17.8728 24.6653 18.2722 25.1992 18.407 25.8665C 18.6732 26.5321 18.6732 27.3329 18.6732 28.132C 18.6732 29.1997 18.407 30.2657 18.006 31.2C 17.6066 31.9991 16.9394 32.7999 16.139 33.4655Z"/>
<path id="path1_fill" fill-rule="evenodd" d="M 38.4113 38.2668C 37.4778 40.6675 36.2781 42.666 34.9453 44.1341C 33.6478 45.7075 32.0639 47.0192 30.2779 47.9995C 28.5423 48.9337 26.6753 49.7328 24.6752 50.1332C 22.6734 50.5319 20.4054 50.8005 18.1391 50.8005C 14.6713 50.8005 11.7378 50.4001 9.46972 49.7328C 7.20169 48.9337 5.2016 47.866 3.86879 46.2661C 2.39941 44.6663 1.46592 42.7995 0.933488 40.4005C 0.399326 37.9999 0 35.2005 0 32.0008C 0 26.4004 0.399326 21.4673 1.33454 17.4668C 2.26803 13.4663 3.60084 10.1348 5.46782 7.60067C 7.3348 5.06653 9.73767 3.06627 12.5381 1.8668C 15.3386 0.667333 18.8063 0 22.6734 0C 25.8749 0 28.6754 0.266933 31.0765 0.932533C 33.3445 1.59987 35.3446 2.66587 36.8123 4.134C 38.2782 5.6004 39.4796 7.60067 40.1469 9.9996C 40.8125 12.4003 41.2135 15.3331 41.2135 18.9332C 41.2135 23.0672 40.9473 26.8008 40.4131 29.8671C 40.1469 33.2003 39.3465 35.8661 38.413 38.2668L 38.4113 38.2668ZM 10.1387 27.066L 19.2074 27.066L 27.3443 7.20027L 10.1387 27.066ZM 25.8766 21.866L 19.2074 27.066L 12.5399 43.0664L 30.9434 21.8677L 25.8749 21.8677L 25.8766 21.866Z"/>
</defs>
</svg>
