<?xml version="1.0" encoding="UTF-8"?>
<svg width="222px" height="51px" viewBox="0 0 222 51" version="1.1" xmlns="http://www.w3.org/2000/svg" xmlns:xlink="http://www.w3.org/1999/xlink">
    <!-- Generator: Sketch 41.2 (35397) - http://www.bohemiancoding.com/sketch -->
    <title>swiftype</title>
    <desc>Created with Sketch.</desc>
    <defs></defs>
    <g id="Page-1" stroke="none" stroke-width="1" fill="none" fill-rule="evenodd">
        <g id="logotype-d03e170eeba0c51010eb4ac25fbf5479">
            <g id="Group">
                <path d="M209.533566,30.5326667 C210.333946,31.2 211.668488,31.6004 213.134411,31.6004 C213.801682,31.6004 214.468953,31.6004 215.136225,31.4669333 L217.13631,31.0682667 C217.803581,30.9330667 218.470853,30.6661333 219.003287,30.5326667 C219.404341,30.3992 219.803667,30.2674667 220.069884,30.134 C220.204721,30.134 220.204721,30.134 220.204721,30.2674667 L221.404426,34.1328 C221.404426,34.2662667 221.404426,34.2662667 221.271318,34.3997333 C220.737155,34.6666667 220.204721,34.9336 219.53745,35.2005333 C218.698823,35.4860334 217.853857,35.7524573 217.003202,35.9996 C216.202822,36.2665333 215.269333,36.4 214.335845,36.5334667 C213.402357,36.6669333 212.468868,36.6669333 211.400543,36.6669333 C209.533566,36.6669333 207.932806,36.4 206.466884,35.9996 C205.132341,35.6009333 203.932636,34.9336 203.130527,34.1328 C202.197039,33.3337333 201.531496,32.1325333 201.130442,30.7996 C200.731116,29.4666667 200.464899,27.7333333 200.464899,25.7330667 C200.464899,23.6010667 200.731116,21.7325333 201.265279,20.1344 C201.797713,18.5328 202.598093,17.1998667 203.66469,16.2673333 C204.689826,15.2284766 205.916524,14.4114273 207.268992,13.8666667 C208.734915,13.3328 210.335674,13.0658667 212.202651,13.0658667 C213.803411,13.0658667 215.137953,13.3328 216.337659,13.7332 C217.404256,14.2670667 218.337744,14.9326667 219.005016,15.7334667 C219.721479,16.7465242 220.262636,17.8733552 220.605775,19.0666667 C221.005101,20.4013333 221.139938,21.9994667 221.139938,23.7328 L221.139938,25.3326667 C221.139938,25.5996 221.139938,26 221.005101,26.2669333 L221.005101,26.5338667 C221.005101,26.6673333 220.871992,26.6673333 220.871992,26.6673333 L208.067643,26.6673333 C207.934535,26.6673333 207.934535,26.8008 207.934535,26.8008 L207.934535,27.1994667 C208.202481,28.6658667 208.734915,29.8670667 209.535295,30.5326667 L209.533566,30.5326667 Z M208.200752,23.0672 L215.136225,23.0672 C215.269333,23.0672 215.269333,22.9337333 215.269333,22.9337333 L215.269333,22.3998667 C215.269333,20.9334667 215.001388,19.8674667 214.468953,19.0666667 C213.934791,18.2658667 213.134411,17.8672 212.067814,17.8672 C210.735,17.8672 209.799783,18.2658667 209.13424,19.0666667 C208.466969,19.8674667 208.065915,20.9334667 208.065915,22.5333333 L208.065915,22.932 C208.065915,22.932 208.065915,23.0672 208.200752,23.0672 L208.200752,23.0672 Z M198.06376,30.134 C197.662705,31.0665333 197.26338,31.8673333 196.596109,32.5329333 C196.063674,33.2002667 195.263295,33.8676 194.462915,34.3997333 C193.662535,34.9336 192.595938,35.334 191.527612,35.5992 C190.212648,35.8777169 188.871367,36.0119733 187.527442,35.9996 L184.325922,35.9996 C184.192814,35.9996 184.192814,35.9996 184.192814,36.1330667 L184.192814,45.734 C184.192814,45.8674667 184.059705,45.8674667 184.059705,45.8674667 L176.989395,46.2661333 C176.856287,46.2661333 176.856287,46.2661333 176.856287,46.1326667 L176.856287,13.5997333 C176.856287,13.4662667 176.856287,13.4662667 176.989395,13.4662667 L183.126217,13.1993333 C183.259326,13.1993333 183.259326,13.1993333 183.259326,13.3328 L183.259326,13.4662667 C183.259326,13.5997333 183.392434,13.8666667 183.392434,14.0001333 C183.392434,14.1336 183.525543,14.3988 183.525543,14.534 L183.525543,14.7992 C183.525543,14.9326667 183.658651,15.1996 183.658651,15.4665333 L183.79176,16.2673333 C183.79176,16.4008 183.924868,16.4008 183.924868,16.2673333 L184.46076,15.7334667 C185.525628,14.7992 186.459116,14.0001333 187.658822,13.6014667 C188.809728,13.1630416 190.030232,12.9369581 191.261395,12.9341333 C192.461101,12.9341333 193.529426,13.1993333 194.462915,13.5997333 C195.396403,13.9984 196.196783,14.6674667 196.862326,15.4665333 C197.529597,16.4008 198.06376,17.4668 198.463085,18.9332 C198.86414,20.3996 199.130357,22.1329333 199.130357,24.1332 C199.130357,25.1992 198.997248,26.2652 198.86414,27.3329333 C198.721925,28.2979751 198.452789,29.2398634 198.06376,30.134 L198.06376,30.134 Z M191.394504,21.9994667 C191.261395,21.2004 190.995178,20.5330667 190.594124,19.9992 C190.194798,19.4670667 189.793744,19.0666667 189.26131,18.7997333 C188.766192,18.5430644 188.2179,18.406513 187.66055,18.4010667 C186.993279,18.4010667 186.459116,18.5328 185.793574,18.7997333 C185.259411,19.0666667 184.725248,19.3336 184.192814,19.734 L184.059705,19.8674667 C184.059705,19.8674667 183.924868,19.9992 183.924868,20.1326667 L183.924868,31.0665333 C183.924868,31.2 183.924868,31.2 184.059705,31.2 L184.325922,31.2 C184.459031,31.2 184.725248,31.3334667 184.993194,31.3334667 C185.259411,31.3334667 185.392519,31.4669333 185.658736,31.4669333 C185.926682,31.4669333 186.194628,31.4669333 186.326008,31.6004 L186.993279,31.6004 C187.793659,31.6004 188.46093,31.4669333 188.993364,31.2 C189.660636,30.9330667 190.06169,30.5326667 190.461016,29.8653333 C190.860341,29.3332 191.128287,28.5341333 191.261395,27.7333333 C191.434253,26.7197637 191.523295,25.6936063 191.527612,24.6653333 C191.660721,23.7328 191.660721,22.8002667 191.394504,21.9994667 L191.394504,21.9994667 Z M164.452992,41.0661333 C164.051938,42.1338667 163.519504,42.9329333 162.985341,43.7337333 C162.452907,44.3993333 161.785636,45.0666667 160.985256,45.6005333 C160.184876,46.1326667 159.251388,46.3996 158.049953,46.6665333 C157.116465,46.9334667 155.91676,47.0652 154.717054,47.2004 C154.582217,47.2004 154.582217,47.2004 154.582217,47.0669333 C154.582217,46.8 154.449109,46.5330667 154.449109,46.2661333 C154.316,45.8674667 154.316,45.6005333 154.182891,45.4670667 L153.916674,44.1324 C153.916674,43.8672 153.781837,43.6002667 153.648729,43.1998667 C153.648729,42.9329333 153.51562,42.666 153.51562,42.4008 C153.51562,42.2673333 153.51562,42.2673333 153.648729,42.2673333 C154.449109,42.1338667 154.983271,42.0004 155.515705,41.8669333 C156.164021,41.7257722 156.791507,41.5014831 157.382682,41.1996 C157.918574,40.9326667 158.316171,40.6674667 158.584116,40.2670667 C158.850333,39.8666667 159.118279,39.4662667 159.251388,39.0658667 L160.184876,36.6669333 L160.184876,36.4 L152.314186,13.7332 C152.314186,13.5997333 152.314186,13.5997333 152.447295,13.5997333 L159.384496,13.5997333 C159.517605,13.5997333 159.517605,13.7332 159.517605,13.7332 L163.918829,27.8668 C163.918829,28.0002667 164.051938,28.0002667 164.051938,27.8668 L168.71938,13.7332 C168.71938,13.5997333 168.854217,13.5997333 168.987326,13.5997333 L174.856202,13.5997333 C174.98931,13.5997333 174.98931,13.5997333 174.98931,13.7332 L164.452992,41.0678667 L164.452992,41.0661333 Z M148.314016,36.1330667 C146.981202,36.4 145.51355,36.5317333 143.646574,36.5317333 C142.578248,36.5317333 141.64476,36.4 140.711271,36.2665333 C139.910891,35.9996 139.245349,35.7326667 138.711186,35.2005333 C138.177023,34.8001333 137.777698,34.1328 137.511481,33.4672 C137.243535,32.6664 137.110426,31.7338667 137.110426,30.6661333 L137.110426,18.668 C137.110426,18.5345333 136.977318,18.5345333 136.977318,18.5345333 L134.576178,18.2676 C134.44307,18.2676 134.44307,18.1358667 134.44307,18.1358667 L134.842395,13.8666667 C134.842395,13.7332 134.977233,13.7332 134.977233,13.7332 L137.243535,13.7332 C137.376643,13.7332 137.376643,13.5997333 137.376643,13.5997333 L138.177023,6.93333333 C138.177023,6.79986667 138.310132,6.79986667 138.310132,6.79986667 L144.312116,6.266 C144.446953,6.266 144.446953,6.266 144.446953,6.39946667 L144.446953,13.7332 C144.446953,13.8666667 144.580062,13.8666667 144.580062,13.8666667 L150.448938,13.8666667 C150.582047,13.8666667 150.582047,14.0001333 150.582047,14.0001333 L150.180992,18.3993333 C150.180992,18.5328 150.047884,18.5328 150.047884,18.5328 L144.713171,18.5328 C144.580062,18.5328 144.580062,18.5328 144.580062,18.6662667 L144.580062,30.4009333 C144.580062,30.7996 144.713171,31.0665333 144.979388,31.3334667 C145.247333,31.4669333 145.51355,31.6004 145.912876,31.6004 L146.846364,31.6004 C147.247419,31.6004 147.646744,31.4669333 148.047798,31.4669333 C148.447124,31.4669333 148.848178,31.3334667 149.247504,31.2 C149.380612,31.2 149.51545,31.2 149.648558,31.0665333 C149.781667,31.0665333 149.781667,31.0665333 149.781667,31.2 L150.848264,35.2005333 C150.848264,35.334 150.848264,35.334 150.715155,35.4674667 C150.180992,35.5992 149.380612,35.8661333 148.314016,36.1330667 L148.314016,36.1330667 Z M132.442984,6.13253333 C131.374659,5.86733333 130.441171,5.86733333 129.642519,5.86733333 C129.374574,5.86733333 129.106628,5.86733333 128.975248,6.0008 C128.707302,6.13253333 128.574194,6.266 128.441085,6.39946667 C128.274335,6.58203034 128.179686,6.81928929 128.174868,7.0668 L128.174868,13.4662667 C128.174868,13.5997333 128.307977,13.5997333 128.307977,13.5997333 L132.709202,13.5997333 C132.84231,13.5997333 132.84231,13.7332 132.84231,13.7332 L132.442984,18.1341333 C132.442984,18.2658667 132.309876,18.2658667 132.309876,18.2658667 L128.307977,18.2658667 C128.174868,18.2658667 128.174868,18.2658667 128.174868,18.3993333 L128.174868,35.8661333 C128.174868,35.9996 128.04176,35.9996 128.04176,35.9996 L121.106287,35.9996 C120.97145,35.9996 120.97145,35.8661333 120.97145,35.8661333 L120.97145,18.3993333 C120.97145,18.2658667 120.838341,18.2658667 120.838341,18.2658667 L118.437202,18.1341333 C118.304093,18.1341333 118.304093,18.0006667 118.304093,18.0006667 L118.705147,13.7332 C118.705147,13.5997333 118.838256,13.5997333 118.838256,13.5997333 L120.838341,13.5997333 C120.97145,13.5997333 120.97145,13.4662667 120.97145,13.4662667 L120.97145,8.39973333 C120.97145,7.06506667 121.106287,5.86733333 121.372504,4.93306667 C121.638721,4.00053333 122.039775,3.19973333 122.572209,2.66586667 C123.106372,2.13373333 123.773643,1.59986667 124.707132,1.33293333 C125.64062,1.066 126.707217,0.934266667 128.174868,0.934266667 C128.707302,0.934266667 129.241465,0.934266667 129.775628,1.066 C130.308062,1.066 130.842225,1.19946667 131.374659,1.19946667 C131.91055,1.33293333 132.442984,1.33293333 132.975419,1.4664 C133.243364,1.4664 133.376473,1.59986667 133.64269,1.59986667 C133.775798,1.59986667 133.775798,1.73333333 133.775798,1.73333333 L132.975419,6.0008 C132.576093,6.13253333 132.576093,6.13253333 132.442984,6.13253333 L132.442984,6.13253333 Z M114.969465,36.1330667 L108.033992,36.1330667 C107.900884,36.1330667 107.900884,35.9996 107.900884,35.9996 L107.900884,13.8666667 C107.900884,13.7332 108.033992,13.7332 108.033992,13.7332 L114.969465,13.4662667 C115.104302,13.4662667 115.104302,13.4662667 115.104302,13.5997333 L115.104302,36.0013333 C115.237411,36.0013333 115.104302,36.1348 114.969465,36.1348 L114.969465,36.1330667 Z M114.836357,9.20053333 L108.168829,9.20053333 C108.033992,9.20053333 108.033992,9.06706667 108.033992,9.06706667 L108.033992,3.46666667 C108.033992,3.3332 108.168829,3.3332 108.168829,3.3332 L114.836357,3.3332 C114.969465,3.3332 114.969465,3.46666667 114.969465,3.46666667 L114.969465,9.06533333 C114.969465,9.20053333 114.969465,9.20053333 114.836357,9.20053333 L114.836357,9.20053333 Z M98.9670543,35.8661333 C98.9670543,35.9996 98.8339457,35.9996 98.8339457,35.9996 L92.697124,35.9996 C92.5640155,35.9996 92.5640155,35.8661333 92.5640155,35.8661333 C92.1646899,34.3997333 89.3642248,23.3341333 88.9631705,21.866 C88.9631705,21.7325333 88.9631705,21.7325333 88.830062,21.866 L83.8946744,35.8661333 C83.8946744,35.9996 83.7615659,35.9996 83.6284574,35.9996 L78.2920155,35.9996 C78.158907,35.9996 78.158907,35.8661333 78.158907,35.8661333 L72.1551938,13.5997333 C72.1551938,13.4662667 72.1551938,13.4662667 72.2883023,13.4662667 L78.6896124,13.4662667 C78.8227209,13.4662667 78.8227209,13.5997333 78.8227209,13.5997333 C79.0906667,14.9344 81.4918062,25.8665333 81.7580233,27.1994667 C81.7580233,27.3329333 81.7580233,27.3329333 81.8911318,27.1994667 L86.4254651,13.7332 C86.4254651,13.5997333 86.5585736,13.5997333 86.6934109,13.5997333 L92.028124,13.3328 C92.1612326,13.3328 92.1612326,13.3328 92.1612326,13.4662667 C92.4274496,14.8009333 95.0948062,25.7330667 95.3627519,27.1994667 C95.3627519,27.3329333 95.3627519,27.3329333 95.4958605,27.1994667 L99.7639767,13.4662667 C99.7639767,13.3328 99.8970853,13.3328 99.8970853,13.3328 L105.765961,13.3328 C105.89907,13.3328 105.89907,13.4662667 105.89907,13.4662667 L98.9635969,35.8661333 L98.9670543,35.8661333 Z M68.0236434,34.3997333 C67.2232636,35.0670667 66.1566667,35.5992 64.9552326,35.9996 C63.7555271,36.4 62.287876,36.5334667 60.6871163,36.5334667 C59.0880853,36.5334667 57.3542171,36.4 55.8865659,36.1348 C54.5764511,35.8583664 53.2844387,35.5017886 52.0177752,35.0670667 C51.8846667,35.0670667 51.8846667,34.9336 51.8846667,34.8001333 L52.9512636,30.134 C52.9512636,30.0005333 53.0861008,30.0005333 53.0861008,30.0005333 C53.4854264,30.134 54.0195891,30.3992 54.5520233,30.5326667 C55.3524031,30.7996 56.1527829,30.9330667 56.9548915,31.0665333 C57.7535426,31.2 58.420814,31.3334667 59.2194651,31.4652 C59.8867364,31.6004 60.5540078,31.6004 61.2212791,31.6004 C62.0216589,31.6004 62.6889302,31.4669333 63.2213643,31.2 C63.8886357,30.8013333 64.0217442,30.2674667 64.0217442,29.8653333 C64.0217442,29.6001333 64.0217442,29.4666667 63.8886357,29.1997333 C63.7555271,28.9328 63.6224186,28.8010667 63.4893101,28.5341333 C63.3562016,28.4006667 63.0882558,28.1337333 62.6889302,28.0002667 C62.3030292,27.8267207 61.9004633,27.6931391 61.4874961,27.6016 C60.1546822,27.3329333 59.0880853,26.9325333 58.1528682,26.6656 C57.3099256,26.4172481 56.5032083,26.0588432 55.7534574,25.5996 C55.086186,25.2009333 54.5520233,24.8005333 54.2858062,24.5336 C53.9340015,24.1673185 53.6211548,23.7653326 53.3523178,23.3341333 C53.0984216,22.93485 52.9596192,22.4729301 52.9512636,21.9994667 C52.818155,21.4673333 52.818155,20.9334667 52.818155,20.3996 C52.818155,19.6005333 52.9512636,18.7997333 53.0861008,18.1341333 C53.3523178,17.4668 53.6185349,16.7994667 54.0195891,16.2673333 C54.4189147,15.7334667 54.819969,15.1996 55.3524031,14.7992 C55.8865659,14.4005333 56.5538372,14.0001333 57.2193798,13.7332 C57.8866512,13.4662667 58.5539225,13.1993333 59.3543023,13.0658667 C60.1546822,12.9341333 60.955062,12.8006667 61.7554419,12.8006667 C62.4209845,12.8006667 63.2213643,12.8006667 63.8886357,12.9341333 C64.555907,12.9341333 65.3562868,13.0658667 66.0235581,13.1993333 C66.6891008,13.3328 67.4894806,13.4662667 68.2898605,13.7332 C68.8240233,13.8666667 69.4912946,14.1318667 70.0237287,14.4005333 C70.1568372,14.4005333 70.1568372,14.534 70.1568372,14.6674667 L68.6909147,19.2001333 C68.6909147,19.3336 68.5578062,19.3336 68.5578062,19.3336 C68.2898605,19.2001333 67.8905349,19.0666667 67.4894806,18.9349333 C66.9570465,18.7997333 66.2897752,18.6662667 65.7556124,18.5328 L65.4893953,18.5328 C64.9552326,18.3993333 64.2896899,18.2658667 63.7555271,18.2658667 C63.2213643,18.1341333 62.6889302,18.1341333 62.287876,18.1341333 C61.4874961,18.1341333 60.955062,18.2658667 60.4208992,18.5328 C60.0215736,18.7997333 59.7536279,19.3336 59.7536279,19.8674667 C59.7536279,20.1326667 59.7536279,20.3996 59.8867364,20.6665333 C60.0375084,20.9509485 60.2699656,21.1834273 60.5540078,21.3338667 C60.8219535,21.4673333 61.2212791,21.7325333 61.7554419,21.866 C62.287876,21.9994667 62.8220388,22.2664 63.6224186,22.3998667 C64.9552326,22.7985333 66.1566667,23.2006667 67.090155,23.5993333 C68.0236434,23.9997333 68.6909147,24.5336 69.2233488,25.0674667 C69.7575116,25.5996 70.1568372,26.1334667 70.2916744,26.8008 C70.5578915,27.4664 70.5578915,28.2672 70.5578915,29.0662667 C70.5578915,30.134 70.2916744,31.2 69.8906202,32.1342667 C69.4912946,32.9333333 68.8240233,33.7341333 68.0236434,34.3997333 L68.0236434,34.3997333 Z" id="Shape" fill="#272E36"></path>
                <path d="M35.5883798,36.2266667 C34.8035581,38.246 33.7922791,39.9290667 32.6703643,41.1632 C31.578652,42.4874778 30.2457993,43.5915692 28.7427984,44.4166667 C27.2837907,45.2018667 25.7124186,45.8744 24.0286822,46.2106667 C22.3466744,46.5469333 20.4382093,46.7722667 18.5314729,46.7722667 C15.6117287,46.7722667 13.1431705,46.436 11.2364341,45.8744 C9.32796899,45.2018667 7.64423256,44.304 6.52231783,42.9572 C5.28803876,41.6121333 4.50148837,40.04 4.05375969,38.0206667 C3.53270933,35.7013186 3.26892431,33.3313294 3.2672093,30.9538667 C3.2672093,26.2409333 3.60430233,22.0896 4.39085271,18.7252 C5.17567442,15.3590667 6.29758915,12.5545333 7.86896124,10.4225333 C9.44033333,8.29053333 11.4594341,6.6092 13.8156279,5.59866667 C16.1735504,4.58813333 19.0915659,4.02826667 22.3466744,4.02826667 C25.0399612,4.02826667 27.396155,4.2536 29.4169845,4.81346667 C31.3237209,5.37333333 33.0074574,6.2712 34.2417364,7.50533333 C35.4760155,8.73946667 36.4872946,10.4225333 37.0473876,12.4418667 C37.6092093,14.4612 37.9463023,16.9312 37.9463023,19.9593333 C37.9463023,23.4364 37.7215736,26.5772 37.2721163,29.1581333 C37.0473876,31.9626667 36.3732016,34.2073333 35.5883798,36.2266667 L35.5883798,36.2266667 Z" id="Shape" fill="#FFFFFF"></path>
                <path d="M38.4113178,38.2668 C37.4778295,40.6674667 36.278124,42.666 34.9453101,44.1341333 C33.6478502,45.7075155 32.0639197,47.0192446 30.2778682,47.9994667 C28.5422713,48.9337333 26.6752946,49.7328 24.6752093,50.1332 C22.6733953,50.5318667 20.4053643,50.8005333 18.139062,50.8005333 C14.6713256,50.8005333 11.7377519,50.4001333 9.46972093,49.7328 C7.20168992,48.9337333 5.20160465,47.866 3.8687907,46.2661333 C2.39941085,44.6662667 1.46592248,42.7994667 0.933488372,40.4005333 C0.399325581,37.9998667 0,35.2005333 0,32.0008 C0,26.4004 0.399325581,21.4673333 1.33454264,17.4668 C2.26803101,13.4662667 3.60084496,10.1348 5.46782171,7.60066667 C7.33479845,5.06653333 9.73766667,3.06626667 12.5381318,1.8668 C15.3385969,0.667333333 18.8063333,0 22.6733953,0 C25.8749147,0 28.6753798,0.266933333 31.0765194,0.932533333 C33.3445504,1.59986667 35.3446357,2.66586667 36.8122868,4.134 C38.2782093,5.6004 39.4796434,7.60066667 40.1469147,9.9996 C40.8124574,12.4002667 41.2135116,15.3330667 41.2135116,18.9332 C41.2135116,23.0672 40.9472946,26.8008 40.4131318,29.8670667 C40.1469147,33.2002667 39.3465349,35.8661333 38.4130465,38.2668 L38.4113178,38.2668 Z M10.1387209,27.066 L19.2073876,27.066 L27.3442946,7.20026667 L10.1387209,27.066 L10.1387209,27.066 Z M25.8766434,21.866 L19.2073876,27.066 L12.5398605,43.0664 L30.9434109,21.8677333 L25.8749147,21.8677333 L25.8766434,21.866 Z" id="Shape" fill="#F9533B"></path>
            </g>
        </g>
    </g>
</svg>